%TF.GenerationSoftware,KiCad,Pcbnew,(6.0.1-0)*%
%TF.CreationDate,2022-03-13T12:33:57+03:30*%
%TF.ProjectId,touch_panel,746f7563-685f-4706-916e-656c2e6b6963,rev?*%
%TF.SameCoordinates,Original*%
%TF.FileFunction,Copper,L1,Top*%
%TF.FilePolarity,Positive*%
%FSLAX46Y46*%
G04 Gerber Fmt 4.6, Leading zero omitted, Abs format (unit mm)*
G04 Created by KiCad (PCBNEW (6.0.1-0)) date 2022-03-13 12:33:57*
%MOMM*%
%LPD*%
G01*
G04 APERTURE LIST*
G04 Aperture macros list*
%AMRoundRect*
0 Rectangle with rounded corners*
0 $1 Rounding radius*
0 $2 $3 $4 $5 $6 $7 $8 $9 X,Y pos of 4 corners*
0 Add a 4 corners polygon primitive as box body*
4,1,4,$2,$3,$4,$5,$6,$7,$8,$9,$2,$3,0*
0 Add four circle primitives for the rounded corners*
1,1,$1+$1,$2,$3*
1,1,$1+$1,$4,$5*
1,1,$1+$1,$6,$7*
1,1,$1+$1,$8,$9*
0 Add four rect primitives between the rounded corners*
20,1,$1+$1,$2,$3,$4,$5,0*
20,1,$1+$1,$4,$5,$6,$7,0*
20,1,$1+$1,$6,$7,$8,$9,0*
20,1,$1+$1,$8,$9,$2,$3,0*%
G04 Aperture macros list end*
%TA.AperFunction,EtchedComponent*%
%ADD10C,6.100000*%
%TD*%
%TA.AperFunction,SMDPad,CuDef*%
%ADD11RoundRect,0.237500X-0.250000X-0.237500X0.250000X-0.237500X0.250000X0.237500X-0.250000X0.237500X0*%
%TD*%
%TA.AperFunction,ComponentPad*%
%ADD12C,1.000000*%
%TD*%
%TA.AperFunction,SMDPad,CuDef*%
%ADD13RoundRect,0.193800X-0.091200X-0.481200X0.091200X-0.481200X0.091200X0.481200X-0.091200X0.481200X0*%
%TD*%
%TA.AperFunction,SMDPad,CuDef*%
%ADD14RoundRect,0.237500X0.237500X-0.287500X0.237500X0.287500X-0.237500X0.287500X-0.237500X-0.287500X0*%
%TD*%
%TA.AperFunction,SMDPad,CuDef*%
%ADD15R,1.550000X1.300000*%
%TD*%
%TA.AperFunction,SMDPad,CuDef*%
%ADD16RoundRect,0.250000X0.375000X0.275000X-0.375000X0.275000X-0.375000X-0.275000X0.375000X-0.275000X0*%
%TD*%
%TA.AperFunction,SMDPad,CuDef*%
%ADD17RoundRect,0.237500X0.237500X-0.250000X0.237500X0.250000X-0.237500X0.250000X-0.237500X-0.250000X0*%
%TD*%
%TA.AperFunction,SMDPad,CuDef*%
%ADD18RoundRect,0.250000X0.275000X-0.375000X0.275000X0.375000X-0.275000X0.375000X-0.275000X-0.375000X0*%
%TD*%
%TA.AperFunction,SMDPad,CuDef*%
%ADD19RoundRect,0.237500X0.250000X0.237500X-0.250000X0.237500X-0.250000X-0.237500X0.250000X-0.237500X0*%
%TD*%
%TA.AperFunction,ComponentPad*%
%ADD20R,1.350000X1.350000*%
%TD*%
%TA.AperFunction,ComponentPad*%
%ADD21O,1.350000X1.350000*%
%TD*%
%TA.AperFunction,ViaPad*%
%ADD22C,0.800000*%
%TD*%
%TA.AperFunction,Conductor*%
%ADD23C,0.250000*%
%TD*%
G04 APERTURE END LIST*
%TO.C,PAD1*%
D10*
X135550000Y-103950000D02*
G75*
G03*
X135550000Y-103950000I-3050000J0D01*
G01*
%TO.C,PAD3*%
X118650000Y-104000000D02*
G75*
G03*
X118650000Y-104000000I-3050000J0D01*
G01*
%TO.C,PAD2*%
X152900000Y-104000000D02*
G75*
G03*
X152900000Y-104000000I-3050000J0D01*
G01*
%TD*%
D11*
%TO.P,R1,1*%
%TO.N,Relay 1*%
X108887500Y-87050000D03*
%TO.P,R1,2*%
%TO.N,Net-(Q1-Pad2)*%
X110712500Y-87050000D03*
%TD*%
D12*
%TO.P,PAD1,6*%
%TO.N,Net-(C3-Pad1)*%
X132500000Y-103950000D03*
%TD*%
D13*
%TO.P,U2,1,Q*%
%TO.N,Touch 2*%
X134800000Y-91185000D03*
%TO.P,U2,2,VSS*%
%TO.N,GND*%
X135750000Y-91185000D03*
%TO.P,U2,3,I*%
%TO.N,Net-(C3-Pad1)*%
X136700000Y-91185000D03*
%TO.P,U2,4,VSS*%
%TO.N,GND*%
X136700000Y-88815000D03*
%TO.P,U2,5,VDD*%
%TO.N,+3V3*%
X135750000Y-88815000D03*
%TO.P,U2,6,LPMB*%
%TO.N,unconnected-(U2-Pad6)*%
X134800000Y-88815000D03*
%TD*%
D14*
%TO.P,D5,1,K*%
%TO.N,Net-(D5-Pad1)*%
X148550000Y-96175000D03*
%TO.P,D5,2,A*%
%TO.N,+3V3*%
X148550000Y-94425000D03*
%TD*%
D15*
%TO.P,SW1,1,1*%
%TO.N,RST*%
X116375000Y-117950000D03*
X124325000Y-117950000D03*
%TO.P,SW1,2,2*%
%TO.N,GND*%
X116375000Y-122450000D03*
X124325000Y-122450000D03*
%TD*%
D11*
%TO.P,R12,1*%
%TO.N,Net-(Q4-Pad3)*%
X127037500Y-94600000D03*
%TO.P,R12,2*%
%TO.N,Net-(D3-Pad1)*%
X128862500Y-94600000D03*
%TD*%
D16*
%TO.P,C6,1*%
%TO.N,GND*%
X155400000Y-87050000D03*
%TO.P,C6,2*%
%TO.N,+3V3*%
X153800000Y-87050000D03*
%TD*%
D17*
%TO.P,R21,1*%
%TO.N,Net-(D9-Pad1)*%
X154900000Y-96162500D03*
%TO.P,R21,2*%
%TO.N,GND*%
X154900000Y-94337500D03*
%TD*%
D11*
%TO.P,R7,1*%
%TO.N,Relay 2*%
X126687500Y-86850000D03*
%TO.P,R7,2*%
%TO.N,Net-(Q3-Pad2)*%
X128512500Y-86850000D03*
%TD*%
%TO.P,R17,1*%
%TO.N,Net-(Q5-Pad3)*%
X144825000Y-96150000D03*
%TO.P,R17,2*%
%TO.N,Net-(D6-Pad1)*%
X146650000Y-96150000D03*
%TD*%
D18*
%TO.P,C1,1*%
%TO.N,Net-(C1-Pad1)*%
X120900000Y-90500000D03*
%TO.P,C1,2*%
%TO.N,GND*%
X120900000Y-88900000D03*
%TD*%
D19*
%TO.P,R2,1*%
%TO.N,GND*%
X119725000Y-84850000D03*
%TO.P,R2,2*%
%TO.N,Net-(Q1-Pad2)*%
X117900000Y-84850000D03*
%TD*%
D17*
%TO.P,R20,1*%
%TO.N,Net-(D8-Pad1)*%
X136950000Y-96462500D03*
%TO.P,R20,2*%
%TO.N,GND*%
X136950000Y-94637500D03*
%TD*%
D18*
%TO.P,C3,1*%
%TO.N,Net-(C3-Pad1)*%
X138750000Y-90600000D03*
%TO.P,C3,2*%
%TO.N,GND*%
X138750000Y-89000000D03*
%TD*%
D11*
%TO.P,R6,1*%
%TO.N,Net-(Q2-Pad3)*%
X109225000Y-94200000D03*
%TO.P,R6,2*%
%TO.N,Net-(D1-Pad1)*%
X111050000Y-94200000D03*
%TD*%
D14*
%TO.P,D2,1,K*%
%TO.N,Net-(D2-Pad1)*%
X114937500Y-95975000D03*
%TO.P,D2,2,A*%
%TO.N,+3V3*%
X114937500Y-94225000D03*
%TD*%
D19*
%TO.P,R14,1*%
%TO.N,GND*%
X155512500Y-84850000D03*
%TO.P,R14,2*%
%TO.N,Net-(Q5-Pad2)*%
X153687500Y-84850000D03*
%TD*%
D14*
%TO.P,D8,1,K*%
%TO.N,Net-(D8-Pad1)*%
X135050000Y-96400000D03*
%TO.P,D8,2,A*%
%TO.N,Touch 2*%
X135050000Y-94650000D03*
%TD*%
D17*
%TO.P,R19,1*%
%TO.N,Net-(D7-Pad1)*%
X118650000Y-96100000D03*
%TO.P,R19,2*%
%TO.N,GND*%
X118650000Y-94275000D03*
%TD*%
D13*
%TO.P,U3,1,Q*%
%TO.N,Touch 3*%
X152950000Y-91635000D03*
%TO.P,U3,2,VSS*%
%TO.N,GND*%
X153900000Y-91635000D03*
%TO.P,U3,3,I*%
%TO.N,Net-(C5-Pad1)*%
X154850000Y-91635000D03*
%TO.P,U3,4,VSS*%
%TO.N,GND*%
X154850000Y-89265000D03*
%TO.P,U3,5,VDD*%
%TO.N,+3V3*%
X153900000Y-89265000D03*
%TO.P,U3,6,LPMB*%
%TO.N,unconnected-(U3-Pad6)*%
X152950000Y-89265000D03*
%TD*%
D16*
%TO.P,C2,1*%
%TO.N,GND*%
X119600000Y-86800000D03*
%TO.P,C2,2*%
%TO.N,+3V3*%
X118000000Y-86800000D03*
%TD*%
D12*
%TO.P,PAD3,6*%
%TO.N,Net-(C1-Pad1)*%
X115600000Y-104000000D03*
%TD*%
D20*
%TO.P,J2,1,Pin_1*%
%TO.N,RST*%
X153350000Y-125950000D03*
D21*
%TO.P,J2,2,Pin_2*%
%TO.N,TX*%
X151350000Y-125950000D03*
%TO.P,J2,3,Pin_3*%
%TO.N,RX*%
X153350000Y-123950000D03*
%TO.P,J2,4,Pin_4*%
%TO.N,BLUELED*%
X151350000Y-123950000D03*
%TO.P,J2,5,Pin_5*%
%TO.N,GND*%
X153350000Y-121950000D03*
%TO.P,J2,6,Pin_6*%
%TO.N,+3V3*%
X151350000Y-121950000D03*
%TO.P,J2,7*%
%TO.N,N/C*%
X153350000Y-119950000D03*
%TO.P,J2,8*%
X151350000Y-119950000D03*
%TD*%
D14*
%TO.P,D7,1,K*%
%TO.N,Net-(D7-Pad1)*%
X116887500Y-95975000D03*
%TO.P,D7,2,A*%
%TO.N,Touch 1*%
X116887500Y-94225000D03*
%TD*%
%TO.P,D3,1,K*%
%TO.N,Net-(D3-Pad1)*%
X130700000Y-96375000D03*
%TO.P,D3,2,A*%
%TO.N,+3V3*%
X130700000Y-94625000D03*
%TD*%
D11*
%TO.P,R11,1*%
%TO.N,Net-(Q3-Pad3)*%
X127037500Y-96400000D03*
%TO.P,R11,2*%
%TO.N,Net-(D4-Pad1)*%
X128862500Y-96400000D03*
%TD*%
D14*
%TO.P,D9,1,K*%
%TO.N,Net-(D9-Pad1)*%
X153000000Y-96175000D03*
%TO.P,D9,2,A*%
%TO.N,Touch 3*%
X153000000Y-94425000D03*
%TD*%
%TO.P,D6,1,K*%
%TO.N,Net-(D6-Pad1)*%
X150850000Y-96175000D03*
%TO.P,D6,2,A*%
%TO.N,+3V3*%
X150850000Y-94425000D03*
%TD*%
D12*
%TO.P,PAD2,6*%
%TO.N,Net-(C5-Pad1)*%
X149850000Y-104000000D03*
%TD*%
D14*
%TO.P,D4,1,K*%
%TO.N,Net-(D4-Pad1)*%
X132950000Y-96400000D03*
%TO.P,D4,2,A*%
%TO.N,+3V3*%
X132950000Y-94650000D03*
%TD*%
D13*
%TO.P,U1,1,Q*%
%TO.N,Touch 1*%
X116950000Y-91232500D03*
%TO.P,U1,2,VSS*%
%TO.N,GND*%
X117900000Y-91232500D03*
%TO.P,U1,3,I*%
%TO.N,Net-(C1-Pad1)*%
X118850000Y-91232500D03*
%TO.P,U1,4,VSS*%
%TO.N,GND*%
X118850000Y-88862500D03*
%TO.P,U1,5,VDD*%
%TO.N,+3V3*%
X117900000Y-88862500D03*
%TO.P,U1,6,LPMB*%
%TO.N,unconnected-(U1-Pad6)*%
X116950000Y-88862500D03*
%TD*%
D14*
%TO.P,D1,1,K*%
%TO.N,Net-(D1-Pad1)*%
X112887500Y-95950000D03*
%TO.P,D1,2,A*%
%TO.N,+3V3*%
X112887500Y-94200000D03*
%TD*%
D11*
%TO.P,R5,1*%
%TO.N,Net-(Q1-Pad3)*%
X109237500Y-96100000D03*
%TO.P,R5,2*%
%TO.N,Net-(D2-Pad1)*%
X111062500Y-96100000D03*
%TD*%
D18*
%TO.P,C5,1*%
%TO.N,Net-(C5-Pad1)*%
X156650000Y-91100000D03*
%TO.P,C5,2*%
%TO.N,GND*%
X156650000Y-89500000D03*
%TD*%
D16*
%TO.P,C4,1*%
%TO.N,GND*%
X137350000Y-86700000D03*
%TO.P,C4,2*%
%TO.N,+3V3*%
X135750000Y-86700000D03*
%TD*%
D19*
%TO.P,R8,1*%
%TO.N,GND*%
X137450000Y-84850000D03*
%TO.P,R8,2*%
%TO.N,Net-(Q3-Pad2)*%
X135625000Y-84850000D03*
%TD*%
D11*
%TO.P,R18,1*%
%TO.N,Net-(Q6-Pad3)*%
X144825000Y-94400000D03*
%TO.P,R18,2*%
%TO.N,Net-(D5-Pad1)*%
X146650000Y-94400000D03*
%TD*%
%TO.P,R13,1*%
%TO.N,Relay 3*%
X144637500Y-86850000D03*
%TO.P,R13,2*%
%TO.N,Net-(Q5-Pad2)*%
X146462500Y-86850000D03*
%TD*%
D20*
%TO.P,J1,1,Pin_1*%
%TO.N,+3V3*%
X140600000Y-120150000D03*
D21*
%TO.P,J1,2,Pin_2*%
%TO.N,unconnected-(J1-Pad2)*%
X140600000Y-118150000D03*
%TO.P,J1,3,Pin_3*%
%TO.N,Relay 2*%
X138600000Y-120150000D03*
%TO.P,J1,4,Pin_4*%
%TO.N,Relay 1*%
X138600000Y-118150000D03*
%TO.P,J1,5,Pin_5*%
%TO.N,unconnected-(J1-Pad5)*%
X136600000Y-120150000D03*
%TO.P,J1,6,Pin_6*%
%TO.N,Relay 3*%
X136600000Y-118150000D03*
%TO.P,J1,7,Pin_7*%
%TO.N,TEMP*%
X134600000Y-120150000D03*
%TO.P,J1,8,Pin_8*%
%TO.N,GND*%
X134600000Y-118150000D03*
%TD*%
D22*
%TO.N,Net-(C1-Pad1)*%
X120900000Y-90500000D03*
%TO.N,GND*%
X156650000Y-89500000D03*
X138750000Y-89000000D03*
X116350000Y-124300000D03*
X120900000Y-88900000D03*
%TO.N,+3V3*%
X149775000Y-94425000D03*
%TO.N,Net-(C3-Pad1)*%
X138750000Y-90600000D03*
%TO.N,Net-(C5-Pad1)*%
X156650000Y-91100000D03*
%TO.N,Touch 1*%
X116887500Y-94225000D03*
%TO.N,Touch 2*%
X117900000Y-119650000D03*
X124750000Y-100050000D03*
X135050000Y-94650000D03*
%TO.N,Touch 3*%
X153000000Y-94425000D03*
%TO.N,Relay 2*%
X128300000Y-114500000D03*
%TO.N,Relay 1*%
X128450000Y-124600000D03*
%TO.N,TEMP*%
X118350000Y-112000000D03*
%TO.N,RST*%
X116350000Y-114400000D03*
X124325000Y-117950000D03*
%TO.N,TX*%
X116350000Y-127200000D03*
%TO.N,RX*%
X118350000Y-127200000D03*
%TO.N,BLUELED*%
X124350000Y-127200000D03*
%TO.N,Net-(Q1-Pad2)*%
X110712500Y-87050000D03*
%TO.N,Net-(Q1-Pad3)*%
X109237500Y-96100000D03*
%TO.N,Net-(Q2-Pad3)*%
X109225000Y-94200000D03*
%TO.N,Net-(Q3-Pad2)*%
X128512500Y-86850000D03*
%TO.N,Net-(Q3-Pad3)*%
X127037500Y-96400000D03*
%TO.N,Net-(Q4-Pad3)*%
X127037500Y-94600000D03*
%TO.N,Net-(Q5-Pad2)*%
X146462500Y-86850000D03*
%TO.N,Net-(Q5-Pad3)*%
X144825000Y-96150000D03*
%TO.N,Net-(Q6-Pad3)*%
X144825000Y-94400000D03*
%TD*%
D23*
%TO.N,Net-(C1-Pad1)*%
X120900000Y-90500000D02*
X119582500Y-90500000D01*
X119582500Y-90500000D02*
X118850000Y-91232500D01*
%TO.N,GND*%
X137350000Y-84950000D02*
X137450000Y-84850000D01*
X124325000Y-122450000D02*
X116375000Y-122450000D01*
X118850000Y-89927085D02*
X117900000Y-90877085D01*
X116350000Y-124300000D02*
X116350000Y-122475000D01*
X155085000Y-89500000D02*
X154850000Y-89265000D01*
X136950000Y-94637500D02*
X140537500Y-94637500D01*
X120900000Y-88900000D02*
X118887500Y-88900000D01*
X117900000Y-90877085D02*
X117900000Y-91232500D01*
X118650000Y-94275000D02*
X117900000Y-93525000D01*
X153350000Y-121950000D02*
X157499520Y-117800480D01*
X118850000Y-88862500D02*
X118850000Y-87550000D01*
X135750000Y-93437500D02*
X135750000Y-91185000D01*
X154850000Y-89265000D02*
X154850000Y-87600000D01*
X135750000Y-90829585D02*
X135750000Y-91185000D01*
X119600000Y-84975000D02*
X119725000Y-84850000D01*
X140537500Y-94637500D02*
X141750480Y-95850480D01*
X156650000Y-89500000D02*
X155085000Y-89500000D01*
X153900000Y-91635000D02*
X153900000Y-93337500D01*
X118850000Y-88862500D02*
X118850000Y-89927085D01*
X154850000Y-87600000D02*
X155400000Y-87050000D01*
X137350000Y-86700000D02*
X137350000Y-84950000D01*
X118887500Y-88900000D02*
X118850000Y-88862500D01*
X138565000Y-88815000D02*
X138750000Y-89000000D01*
X153900000Y-91635000D02*
X153900000Y-90585718D01*
X154800000Y-89265000D02*
X154800000Y-89620415D01*
X153900000Y-90585718D02*
X154850000Y-89635718D01*
X153900000Y-93337500D02*
X154900000Y-94337500D01*
X157499520Y-117800480D02*
X157499520Y-86837020D01*
X155400000Y-84962500D02*
X155512500Y-84850000D01*
X154850000Y-89635718D02*
X154850000Y-89265000D01*
X116350000Y-122475000D02*
X116375000Y-122450000D01*
X136950000Y-94637500D02*
X135750000Y-93437500D01*
X141750480Y-109213802D02*
X134600000Y-116364282D01*
X136700000Y-87350000D02*
X137350000Y-86700000D01*
X136700000Y-89879585D02*
X135750000Y-90829585D01*
X136700000Y-88815000D02*
X138565000Y-88815000D01*
X157499520Y-86837020D02*
X155512500Y-84850000D01*
X136700000Y-88815000D02*
X136700000Y-87350000D01*
X119600000Y-86800000D02*
X119600000Y-84975000D01*
X155400000Y-87050000D02*
X155400000Y-84962500D01*
X134600000Y-116364282D02*
X134600000Y-118150000D01*
X117900000Y-93525000D02*
X117900000Y-91232500D01*
X141750480Y-95850480D02*
X141750480Y-109213802D01*
X118850000Y-87550000D02*
X119600000Y-86800000D01*
X136700000Y-88815000D02*
X136700000Y-89879585D01*
%TO.N,+3V3*%
X154499520Y-86300480D02*
X154700000Y-86100000D01*
X118712020Y-84580664D02*
X119792684Y-83500000D01*
X154499520Y-86350480D02*
X154499520Y-86300480D01*
X136000000Y-83500000D02*
X136100000Y-83600000D01*
X136750000Y-83650000D02*
X136650000Y-83650000D01*
X136100000Y-83600000D02*
X136500000Y-83600000D01*
X135300000Y-90000000D02*
X134250000Y-90000000D01*
X136100000Y-83500000D02*
X136100000Y-83600000D01*
X153900000Y-83500000D02*
X137100000Y-83500000D01*
X136550000Y-85900000D02*
X135750000Y-86700000D01*
X114937500Y-91412500D02*
X114937500Y-94225000D01*
X151750000Y-91100000D02*
X151750000Y-93525000D01*
X135750000Y-88815000D02*
X135750000Y-86700000D01*
X153900000Y-89265000D02*
X153900000Y-89950000D01*
X132950000Y-94650000D02*
X130725000Y-94650000D01*
X112912500Y-94225000D02*
X112887500Y-94200000D01*
X134250000Y-90000000D02*
X132950000Y-91300000D01*
X137100000Y-83500000D02*
X136550000Y-84050000D01*
X148550000Y-94425000D02*
X149775000Y-94425000D01*
X136650000Y-83650000D02*
X136500000Y-83800000D01*
X116150000Y-90200000D02*
X114937500Y-91412500D01*
X149775000Y-94425000D02*
X150850000Y-94425000D01*
X117900000Y-88862500D02*
X117900000Y-86900000D01*
X154700000Y-86100000D02*
X154700000Y-84300000D01*
X153900000Y-89265000D02*
X153900000Y-87150000D01*
X153900000Y-87150000D02*
X153800000Y-87050000D01*
X132950000Y-91300000D02*
X132950000Y-94650000D01*
X117900000Y-86900000D02*
X118000000Y-86800000D01*
X152450000Y-90400000D02*
X151750000Y-91100000D01*
X135750000Y-88815000D02*
X135750000Y-89550000D01*
X114937500Y-94225000D02*
X112912500Y-94225000D01*
X135950000Y-83500000D02*
X136000000Y-83500000D01*
X153800000Y-87050000D02*
X154499520Y-86350480D01*
X117300000Y-90200000D02*
X116150000Y-90200000D01*
X130725000Y-94650000D02*
X130700000Y-94625000D01*
X136700000Y-83700000D02*
X136750000Y-83650000D01*
X117900000Y-89600000D02*
X117300000Y-90200000D01*
X117900000Y-88862500D02*
X117900000Y-89600000D01*
X118000000Y-86800000D02*
X118712020Y-86087980D01*
X135950000Y-83500000D02*
X136100000Y-83500000D01*
X151350000Y-121950000D02*
X149550000Y-120150000D01*
X135750000Y-89550000D02*
X135300000Y-90000000D01*
X136600000Y-83700000D02*
X136700000Y-83700000D01*
X153900000Y-89950000D02*
X153450000Y-90400000D01*
X149550000Y-120150000D02*
X140600000Y-120150000D01*
X153450000Y-90400000D02*
X152450000Y-90400000D01*
X136600000Y-83700000D02*
X136500000Y-83600000D01*
X119792684Y-83500000D02*
X135950000Y-83500000D01*
X154700000Y-84300000D02*
X153900000Y-83500000D01*
X118712020Y-86087980D02*
X118712020Y-84580664D01*
X151750000Y-93525000D02*
X150850000Y-94425000D01*
X136550000Y-84050000D02*
X136550000Y-85900000D01*
X136100000Y-83600000D02*
X136550000Y-84050000D01*
X136100000Y-83500000D02*
X137450000Y-83500000D01*
%TO.N,Net-(C3-Pad1)*%
X138650000Y-90500000D02*
X138750000Y-90600000D01*
X137385000Y-90500000D02*
X138650000Y-90500000D01*
X136700000Y-91185000D02*
X137385000Y-90500000D01*
%TO.N,Net-(C5-Pad1)*%
X156650000Y-91100000D02*
X155385000Y-91100000D01*
X155385000Y-91100000D02*
X154850000Y-91635000D01*
%TO.N,Net-(D1-Pad1)*%
X112887500Y-95950000D02*
X112800000Y-95950000D01*
X112800000Y-95950000D02*
X111050000Y-94200000D01*
%TO.N,Net-(D2-Pad1)*%
X114112980Y-96799520D02*
X111762020Y-96799520D01*
X114937500Y-95975000D02*
X114112980Y-96799520D01*
X111762020Y-96799520D02*
X111062500Y-96100000D01*
%TO.N,Net-(D3-Pad1)*%
X130637500Y-96375000D02*
X128862500Y-94600000D01*
X130700000Y-96375000D02*
X130637500Y-96375000D01*
%TO.N,Net-(D4-Pad1)*%
X129687020Y-97224520D02*
X132125480Y-97224520D01*
X128862500Y-96400000D02*
X129687020Y-97224520D01*
X132125480Y-97224520D02*
X132950000Y-96400000D01*
%TO.N,Net-(D5-Pad1)*%
X148550000Y-96175000D02*
X148425000Y-96175000D01*
X148425000Y-96175000D02*
X146650000Y-94400000D01*
%TO.N,Net-(D6-Pad1)*%
X150850000Y-96175000D02*
X150000480Y-97024520D01*
X150000480Y-97024520D02*
X147524520Y-97024520D01*
X147524520Y-97024520D02*
X146650000Y-96150000D01*
%TO.N,Net-(D7-Pad1)*%
X116887500Y-95975000D02*
X118525000Y-95975000D01*
X118525000Y-95975000D02*
X118650000Y-96100000D01*
%TO.N,Touch 1*%
X116950000Y-94162500D02*
X116887500Y-94225000D01*
X116950000Y-91232500D02*
X116950000Y-94162500D01*
%TO.N,Net-(D8-Pad1)*%
X136887500Y-96400000D02*
X136950000Y-96462500D01*
X135050000Y-96400000D02*
X136887500Y-96400000D01*
%TO.N,Touch 2*%
X124750000Y-100050000D02*
X124750000Y-108426804D01*
X122601784Y-110575020D02*
X117774980Y-110575020D01*
X117900000Y-116650000D02*
X117900000Y-119650000D01*
X134800000Y-94400000D02*
X135050000Y-94650000D01*
X117774980Y-110575020D02*
X117400000Y-110950000D01*
X117400000Y-116150000D02*
X117900000Y-116650000D01*
X124750000Y-108426804D02*
X122601784Y-110575020D01*
X134800000Y-91185000D02*
X134800000Y-94400000D01*
X117400000Y-110950000D02*
X117400000Y-116150000D01*
%TO.N,Net-(D9-Pad1)*%
X154850000Y-96175000D02*
X154875000Y-96150000D01*
X153012500Y-96162500D02*
X153000000Y-96175000D01*
X154900000Y-96162500D02*
X153012500Y-96162500D01*
%TO.N,Touch 3*%
X152950000Y-91945776D02*
X153000000Y-91995776D01*
X153000000Y-91995776D02*
X153000000Y-94425000D01*
X152950000Y-91635000D02*
X152950000Y-91945776D01*
%TO.N,Relay 2*%
X125500000Y-88037500D02*
X125500000Y-88350000D01*
X126687500Y-86850000D02*
X125500000Y-88037500D01*
X125500000Y-88350000D02*
X125500000Y-111700000D01*
X128300000Y-114500000D02*
X132949511Y-119149511D01*
X137599511Y-119149511D02*
X138600000Y-120150000D01*
X132949511Y-119149511D02*
X137599511Y-119149511D01*
X125500000Y-111700000D02*
X128300000Y-114500000D01*
%TO.N,Relay 1*%
X108887500Y-87050000D02*
X108002205Y-87935295D01*
X128450000Y-123750000D02*
X128450000Y-124600000D01*
X125100000Y-120400000D02*
X128450000Y-123750000D01*
X128450000Y-124600000D02*
X136450000Y-124600000D01*
X115175020Y-119425020D02*
X116150000Y-120400000D01*
X115175020Y-111428216D02*
X115175020Y-119425020D01*
X136450000Y-124600000D02*
X139600000Y-121450000D01*
X139600000Y-121450000D02*
X139600000Y-119150000D01*
X115101784Y-111354980D02*
X115175020Y-111428216D01*
X108002205Y-87935295D02*
X108002205Y-110501784D01*
X108002205Y-110501784D02*
X108855401Y-111354980D01*
X108855401Y-111354980D02*
X115101784Y-111354980D01*
X116150000Y-120400000D02*
X125100000Y-120400000D01*
X139600000Y-119150000D02*
X138600000Y-118150000D01*
%TO.N,Relay 3*%
X144637500Y-86850000D02*
X142200000Y-89287500D01*
X142200000Y-89287500D02*
X142200000Y-109400000D01*
X136600000Y-115000000D02*
X136600000Y-118150000D01*
X142200000Y-109400000D02*
X136600000Y-115000000D01*
%TO.N,TEMP*%
X128599022Y-120150000D02*
X122999022Y-114550000D01*
X118350000Y-114100000D02*
X118350000Y-112000000D01*
X118800000Y-114550000D02*
X118350000Y-114100000D01*
X122999022Y-114550000D02*
X118800000Y-114550000D01*
X134600000Y-120150000D02*
X128599022Y-120150000D01*
%TO.N,RST*%
X116375000Y-114425000D02*
X116375000Y-117950000D01*
X116350000Y-114400000D02*
X116375000Y-114425000D01*
%TO.N,TX*%
X151350000Y-125950000D02*
X150900000Y-125500000D01*
X118050000Y-125500000D02*
X116350000Y-127200000D01*
X150900000Y-125500000D02*
X148475489Y-127924511D01*
X124049897Y-127924511D02*
X121625386Y-125500000D01*
X148475489Y-127924511D02*
X124049897Y-127924511D01*
X121625386Y-125500000D02*
X118050000Y-125500000D01*
%TO.N,RX*%
X154700000Y-125300000D02*
X154700000Y-127400000D01*
X154700000Y-127400000D02*
X153725969Y-128374031D01*
X119524031Y-128374031D02*
X118350000Y-127200000D01*
X153725969Y-128374031D02*
X119524031Y-128374031D01*
X153350000Y-123950000D02*
X154700000Y-125300000D01*
%TO.N,BLUELED*%
X149150000Y-126150000D02*
X125400000Y-126150000D01*
X151350000Y-123950000D02*
X149150000Y-126150000D01*
X125400000Y-126150000D02*
X124350000Y-127200000D01*
%TO.N,Net-(Q1-Pad2)*%
X115700000Y-87050000D02*
X117900000Y-84850000D01*
X110712500Y-87050000D02*
X115700000Y-87050000D01*
%TO.N,Net-(Q3-Pad2)*%
X128512500Y-86850000D02*
X133625000Y-86850000D01*
X133625000Y-86850000D02*
X135625000Y-84850000D01*
%TO.N,Net-(Q5-Pad2)*%
X146462500Y-86850000D02*
X151687500Y-86850000D01*
X151687500Y-86850000D02*
X153687500Y-84850000D01*
%TD*%
M02*
