%TF.GenerationSoftware,KiCad,Pcbnew,(6.0.1-0)*%
%TF.CreationDate,2022-03-13T12:33:57+03:30*%
%TF.ProjectId,touch_panel,746f7563-685f-4706-916e-656c2e6b6963,rev?*%
%TF.SameCoordinates,Original*%
%TF.FileFunction,Legend,Top*%
%TF.FilePolarity,Positive*%
%FSLAX46Y46*%
G04 Gerber Fmt 4.6, Leading zero omitted, Abs format (unit mm)*
G04 Created by KiCad (PCBNEW (6.0.1-0)) date 2022-03-13 12:33:57*
%MOMM*%
%LPD*%
G01*
G04 APERTURE LIST*
%ADD10C,0.150000*%
%ADD11C,0.120000*%
%ADD12C,0.127000*%
%ADD13C,0.200000*%
G04 APERTURE END LIST*
D10*
X124700000Y-93600000D02*
X140800000Y-93600000D01*
X140800000Y-93600000D02*
X140800000Y-114600000D01*
X140800000Y-114600000D02*
X124700000Y-114600000D01*
X124700000Y-114600000D02*
X124700000Y-93600000D01*
X107650000Y-93600000D02*
X123750000Y-93600000D01*
X123750000Y-93600000D02*
X123750000Y-114600000D01*
X123750000Y-114600000D02*
X107650000Y-114600000D01*
X107650000Y-114600000D02*
X107650000Y-93600000D01*
X141750000Y-93600000D02*
X157850000Y-93600000D01*
X157850000Y-93600000D02*
X157850000Y-114600000D01*
X157850000Y-114600000D02*
X141750000Y-114600000D01*
X141750000Y-114600000D02*
X141750000Y-93600000D01*
%TO.C,R1*%
X109633333Y-86072380D02*
X109300000Y-85596190D01*
X109061904Y-86072380D02*
X109061904Y-85072380D01*
X109442857Y-85072380D01*
X109538095Y-85120000D01*
X109585714Y-85167619D01*
X109633333Y-85262857D01*
X109633333Y-85405714D01*
X109585714Y-85500952D01*
X109538095Y-85548571D01*
X109442857Y-85596190D01*
X109061904Y-85596190D01*
X110585714Y-86072380D02*
X110014285Y-86072380D01*
X110300000Y-86072380D02*
X110300000Y-85072380D01*
X110204761Y-85215238D01*
X110109523Y-85310476D01*
X110014285Y-85358095D01*
%TO.C,PAD1*%
X130833333Y-103902380D02*
X130833333Y-102902380D01*
X131214285Y-102902380D01*
X131309523Y-102950000D01*
X131357142Y-102997619D01*
X131404761Y-103092857D01*
X131404761Y-103235714D01*
X131357142Y-103330952D01*
X131309523Y-103378571D01*
X131214285Y-103426190D01*
X130833333Y-103426190D01*
X131785714Y-103616666D02*
X132261904Y-103616666D01*
X131690476Y-103902380D02*
X132023809Y-102902380D01*
X132357142Y-103902380D01*
X132690476Y-103902380D02*
X132690476Y-102902380D01*
X132928571Y-102902380D01*
X133071428Y-102950000D01*
X133166666Y-103045238D01*
X133214285Y-103140476D01*
X133261904Y-103330952D01*
X133261904Y-103473809D01*
X133214285Y-103664285D01*
X133166666Y-103759523D01*
X133071428Y-103854761D01*
X132928571Y-103902380D01*
X132690476Y-103902380D01*
X134214285Y-103902380D02*
X133642857Y-103902380D01*
X133928571Y-103902380D02*
X133928571Y-102902380D01*
X133833333Y-103045238D01*
X133738095Y-103140476D01*
X133642857Y-103188095D01*
%TO.C,U2*%
X132499523Y-90537619D02*
X133017619Y-90537619D01*
X133078571Y-90507142D01*
X133109047Y-90476666D01*
X133139523Y-90415714D01*
X133139523Y-90293809D01*
X133109047Y-90232857D01*
X133078571Y-90202380D01*
X133017619Y-90171904D01*
X132499523Y-90171904D01*
X132560476Y-89897619D02*
X132530000Y-89867142D01*
X132499523Y-89806190D01*
X132499523Y-89653809D01*
X132530000Y-89592857D01*
X132560476Y-89562380D01*
X132621428Y-89531904D01*
X132682380Y-89531904D01*
X132773809Y-89562380D01*
X133139523Y-89928095D01*
X133139523Y-89531904D01*
%TO.C,D5*%
X148952380Y-93388095D02*
X147952380Y-93388095D01*
X147952380Y-93150000D01*
X148000000Y-93007142D01*
X148095238Y-92911904D01*
X148190476Y-92864285D01*
X148380952Y-92816666D01*
X148523809Y-92816666D01*
X148714285Y-92864285D01*
X148809523Y-92911904D01*
X148904761Y-93007142D01*
X148952380Y-93150000D01*
X148952380Y-93388095D01*
X147952380Y-91911904D02*
X147952380Y-92388095D01*
X148428571Y-92435714D01*
X148380952Y-92388095D01*
X148333333Y-92292857D01*
X148333333Y-92054761D01*
X148380952Y-91959523D01*
X148428571Y-91911904D01*
X148523809Y-91864285D01*
X148761904Y-91864285D01*
X148857142Y-91911904D01*
X148904761Y-91959523D01*
X148952380Y-92054761D01*
X148952380Y-92292857D01*
X148904761Y-92388095D01*
X148857142Y-92435714D01*
%TO.C,SW1*%
X119016666Y-116554761D02*
X119159523Y-116602380D01*
X119397619Y-116602380D01*
X119492857Y-116554761D01*
X119540476Y-116507142D01*
X119588095Y-116411904D01*
X119588095Y-116316666D01*
X119540476Y-116221428D01*
X119492857Y-116173809D01*
X119397619Y-116126190D01*
X119207142Y-116078571D01*
X119111904Y-116030952D01*
X119064285Y-115983333D01*
X119016666Y-115888095D01*
X119016666Y-115792857D01*
X119064285Y-115697619D01*
X119111904Y-115650000D01*
X119207142Y-115602380D01*
X119445238Y-115602380D01*
X119588095Y-115650000D01*
X119921428Y-115602380D02*
X120159523Y-116602380D01*
X120350000Y-115888095D01*
X120540476Y-116602380D01*
X120778571Y-115602380D01*
X121683333Y-116602380D02*
X121111904Y-116602380D01*
X121397619Y-116602380D02*
X121397619Y-115602380D01*
X121302380Y-115745238D01*
X121207142Y-115840476D01*
X121111904Y-115888095D01*
%TO.C,R12*%
X127307142Y-93622380D02*
X126973809Y-93146190D01*
X126735714Y-93622380D02*
X126735714Y-92622380D01*
X127116666Y-92622380D01*
X127211904Y-92670000D01*
X127259523Y-92717619D01*
X127307142Y-92812857D01*
X127307142Y-92955714D01*
X127259523Y-93050952D01*
X127211904Y-93098571D01*
X127116666Y-93146190D01*
X126735714Y-93146190D01*
X128259523Y-93622380D02*
X127688095Y-93622380D01*
X127973809Y-93622380D02*
X127973809Y-92622380D01*
X127878571Y-92765238D01*
X127783333Y-92860476D01*
X127688095Y-92908095D01*
X128640476Y-92717619D02*
X128688095Y-92670000D01*
X128783333Y-92622380D01*
X129021428Y-92622380D01*
X129116666Y-92670000D01*
X129164285Y-92717619D01*
X129211904Y-92812857D01*
X129211904Y-92908095D01*
X129164285Y-93050952D01*
X128592857Y-93622380D01*
X129211904Y-93622380D01*
%TO.C,C6*%
X151683333Y-87507142D02*
X151635714Y-87554761D01*
X151492857Y-87602380D01*
X151397619Y-87602380D01*
X151254761Y-87554761D01*
X151159523Y-87459523D01*
X151111904Y-87364285D01*
X151064285Y-87173809D01*
X151064285Y-87030952D01*
X151111904Y-86840476D01*
X151159523Y-86745238D01*
X151254761Y-86650000D01*
X151397619Y-86602380D01*
X151492857Y-86602380D01*
X151635714Y-86650000D01*
X151683333Y-86697619D01*
X152540476Y-86602380D02*
X152350000Y-86602380D01*
X152254761Y-86650000D01*
X152207142Y-86697619D01*
X152111904Y-86840476D01*
X152064285Y-87030952D01*
X152064285Y-87411904D01*
X152111904Y-87507142D01*
X152159523Y-87554761D01*
X152254761Y-87602380D01*
X152445238Y-87602380D01*
X152540476Y-87554761D01*
X152588095Y-87507142D01*
X152635714Y-87411904D01*
X152635714Y-87173809D01*
X152588095Y-87078571D01*
X152540476Y-87030952D01*
X152445238Y-86983333D01*
X152254761Y-86983333D01*
X152159523Y-87030952D01*
X152111904Y-87078571D01*
X152064285Y-87173809D01*
%TO.C,R21*%
X155452380Y-98592857D02*
X154976190Y-98926190D01*
X155452380Y-99164285D02*
X154452380Y-99164285D01*
X154452380Y-98783333D01*
X154500000Y-98688095D01*
X154547619Y-98640476D01*
X154642857Y-98592857D01*
X154785714Y-98592857D01*
X154880952Y-98640476D01*
X154928571Y-98688095D01*
X154976190Y-98783333D01*
X154976190Y-99164285D01*
X154547619Y-98211904D02*
X154500000Y-98164285D01*
X154452380Y-98069047D01*
X154452380Y-97830952D01*
X154500000Y-97735714D01*
X154547619Y-97688095D01*
X154642857Y-97640476D01*
X154738095Y-97640476D01*
X154880952Y-97688095D01*
X155452380Y-98259523D01*
X155452380Y-97640476D01*
X155452380Y-96688095D02*
X155452380Y-97259523D01*
X155452380Y-96973809D02*
X154452380Y-96973809D01*
X154595238Y-97069047D01*
X154690476Y-97164285D01*
X154738095Y-97259523D01*
%TO.C,R7*%
X127433333Y-85872380D02*
X127100000Y-85396190D01*
X126861904Y-85872380D02*
X126861904Y-84872380D01*
X127242857Y-84872380D01*
X127338095Y-84920000D01*
X127385714Y-84967619D01*
X127433333Y-85062857D01*
X127433333Y-85205714D01*
X127385714Y-85300952D01*
X127338095Y-85348571D01*
X127242857Y-85396190D01*
X126861904Y-85396190D01*
X127766666Y-84872380D02*
X128433333Y-84872380D01*
X128004761Y-85872380D01*
%TO.C,R17*%
X145094642Y-98102380D02*
X144761309Y-97626190D01*
X144523214Y-98102380D02*
X144523214Y-97102380D01*
X144904166Y-97102380D01*
X144999404Y-97150000D01*
X145047023Y-97197619D01*
X145094642Y-97292857D01*
X145094642Y-97435714D01*
X145047023Y-97530952D01*
X144999404Y-97578571D01*
X144904166Y-97626190D01*
X144523214Y-97626190D01*
X146047023Y-98102380D02*
X145475595Y-98102380D01*
X145761309Y-98102380D02*
X145761309Y-97102380D01*
X145666071Y-97245238D01*
X145570833Y-97340476D01*
X145475595Y-97388095D01*
X146380357Y-97102380D02*
X147047023Y-97102380D01*
X146618452Y-98102380D01*
%TO.C,C1*%
X121207142Y-92616666D02*
X121254761Y-92664285D01*
X121302380Y-92807142D01*
X121302380Y-92902380D01*
X121254761Y-93045238D01*
X121159523Y-93140476D01*
X121064285Y-93188095D01*
X120873809Y-93235714D01*
X120730952Y-93235714D01*
X120540476Y-93188095D01*
X120445238Y-93140476D01*
X120350000Y-93045238D01*
X120302380Y-92902380D01*
X120302380Y-92807142D01*
X120350000Y-92664285D01*
X120397619Y-92616666D01*
X121302380Y-91664285D02*
X121302380Y-92235714D01*
X121302380Y-91950000D02*
X120302380Y-91950000D01*
X120445238Y-92045238D01*
X120540476Y-92140476D01*
X120588095Y-92235714D01*
%TO.C,R2*%
X116033333Y-85252380D02*
X115700000Y-84776190D01*
X115461904Y-85252380D02*
X115461904Y-84252380D01*
X115842857Y-84252380D01*
X115938095Y-84300000D01*
X115985714Y-84347619D01*
X116033333Y-84442857D01*
X116033333Y-84585714D01*
X115985714Y-84680952D01*
X115938095Y-84728571D01*
X115842857Y-84776190D01*
X115461904Y-84776190D01*
X116414285Y-84347619D02*
X116461904Y-84300000D01*
X116557142Y-84252380D01*
X116795238Y-84252380D01*
X116890476Y-84300000D01*
X116938095Y-84347619D01*
X116985714Y-84442857D01*
X116985714Y-84538095D01*
X116938095Y-84680952D01*
X116366666Y-85252380D01*
X116985714Y-85252380D01*
%TO.C,R20*%
X137452380Y-99242857D02*
X136976190Y-99576190D01*
X137452380Y-99814285D02*
X136452380Y-99814285D01*
X136452380Y-99433333D01*
X136500000Y-99338095D01*
X136547619Y-99290476D01*
X136642857Y-99242857D01*
X136785714Y-99242857D01*
X136880952Y-99290476D01*
X136928571Y-99338095D01*
X136976190Y-99433333D01*
X136976190Y-99814285D01*
X136547619Y-98861904D02*
X136500000Y-98814285D01*
X136452380Y-98719047D01*
X136452380Y-98480952D01*
X136500000Y-98385714D01*
X136547619Y-98338095D01*
X136642857Y-98290476D01*
X136738095Y-98290476D01*
X136880952Y-98338095D01*
X137452380Y-98909523D01*
X137452380Y-98290476D01*
X136452380Y-97671428D02*
X136452380Y-97576190D01*
X136500000Y-97480952D01*
X136547619Y-97433333D01*
X136642857Y-97385714D01*
X136833333Y-97338095D01*
X137071428Y-97338095D01*
X137261904Y-97385714D01*
X137357142Y-97433333D01*
X137404761Y-97480952D01*
X137452380Y-97576190D01*
X137452380Y-97671428D01*
X137404761Y-97766666D01*
X137357142Y-97814285D01*
X137261904Y-97861904D01*
X137071428Y-97909523D01*
X136833333Y-97909523D01*
X136642857Y-97861904D01*
X136547619Y-97814285D01*
X136500000Y-97766666D01*
X136452380Y-97671428D01*
%TO.C,C3*%
X139257142Y-92766666D02*
X139304761Y-92814285D01*
X139352380Y-92957142D01*
X139352380Y-93052380D01*
X139304761Y-93195238D01*
X139209523Y-93290476D01*
X139114285Y-93338095D01*
X138923809Y-93385714D01*
X138780952Y-93385714D01*
X138590476Y-93338095D01*
X138495238Y-93290476D01*
X138400000Y-93195238D01*
X138352380Y-93052380D01*
X138352380Y-92957142D01*
X138400000Y-92814285D01*
X138447619Y-92766666D01*
X138352380Y-92433333D02*
X138352380Y-91814285D01*
X138733333Y-92147619D01*
X138733333Y-92004761D01*
X138780952Y-91909523D01*
X138828571Y-91861904D01*
X138923809Y-91814285D01*
X139161904Y-91814285D01*
X139257142Y-91861904D01*
X139304761Y-91909523D01*
X139352380Y-92004761D01*
X139352380Y-92290476D01*
X139304761Y-92385714D01*
X139257142Y-92433333D01*
%TO.C,R6*%
X109970833Y-93222380D02*
X109637500Y-92746190D01*
X109399404Y-93222380D02*
X109399404Y-92222380D01*
X109780357Y-92222380D01*
X109875595Y-92270000D01*
X109923214Y-92317619D01*
X109970833Y-92412857D01*
X109970833Y-92555714D01*
X109923214Y-92650952D01*
X109875595Y-92698571D01*
X109780357Y-92746190D01*
X109399404Y-92746190D01*
X110827976Y-92222380D02*
X110637500Y-92222380D01*
X110542261Y-92270000D01*
X110494642Y-92317619D01*
X110399404Y-92460476D01*
X110351785Y-92650952D01*
X110351785Y-93031904D01*
X110399404Y-93127142D01*
X110447023Y-93174761D01*
X110542261Y-93222380D01*
X110732738Y-93222380D01*
X110827976Y-93174761D01*
X110875595Y-93127142D01*
X110923214Y-93031904D01*
X110923214Y-92793809D01*
X110875595Y-92698571D01*
X110827976Y-92650952D01*
X110732738Y-92603333D01*
X110542261Y-92603333D01*
X110447023Y-92650952D01*
X110399404Y-92698571D01*
X110351785Y-92793809D01*
%TO.C,D2*%
X115452380Y-93338095D02*
X114452380Y-93338095D01*
X114452380Y-93100000D01*
X114500000Y-92957142D01*
X114595238Y-92861904D01*
X114690476Y-92814285D01*
X114880952Y-92766666D01*
X115023809Y-92766666D01*
X115214285Y-92814285D01*
X115309523Y-92861904D01*
X115404761Y-92957142D01*
X115452380Y-93100000D01*
X115452380Y-93338095D01*
X114547619Y-92385714D02*
X114500000Y-92338095D01*
X114452380Y-92242857D01*
X114452380Y-92004761D01*
X114500000Y-91909523D01*
X114547619Y-91861904D01*
X114642857Y-91814285D01*
X114738095Y-91814285D01*
X114880952Y-91861904D01*
X115452380Y-92433333D01*
X115452380Y-91814285D01*
%TO.C,R14*%
X150957142Y-85252380D02*
X150623809Y-84776190D01*
X150385714Y-85252380D02*
X150385714Y-84252380D01*
X150766666Y-84252380D01*
X150861904Y-84300000D01*
X150909523Y-84347619D01*
X150957142Y-84442857D01*
X150957142Y-84585714D01*
X150909523Y-84680952D01*
X150861904Y-84728571D01*
X150766666Y-84776190D01*
X150385714Y-84776190D01*
X151909523Y-85252380D02*
X151338095Y-85252380D01*
X151623809Y-85252380D02*
X151623809Y-84252380D01*
X151528571Y-84395238D01*
X151433333Y-84490476D01*
X151338095Y-84538095D01*
X152766666Y-84585714D02*
X152766666Y-85252380D01*
X152528571Y-84204761D02*
X152290476Y-84919047D01*
X152909523Y-84919047D01*
%TO.C,D8*%
X134211904Y-93352380D02*
X134211904Y-92352380D01*
X134450000Y-92352380D01*
X134592857Y-92400000D01*
X134688095Y-92495238D01*
X134735714Y-92590476D01*
X134783333Y-92780952D01*
X134783333Y-92923809D01*
X134735714Y-93114285D01*
X134688095Y-93209523D01*
X134592857Y-93304761D01*
X134450000Y-93352380D01*
X134211904Y-93352380D01*
X135354761Y-92780952D02*
X135259523Y-92733333D01*
X135211904Y-92685714D01*
X135164285Y-92590476D01*
X135164285Y-92542857D01*
X135211904Y-92447619D01*
X135259523Y-92400000D01*
X135354761Y-92352380D01*
X135545238Y-92352380D01*
X135640476Y-92400000D01*
X135688095Y-92447619D01*
X135735714Y-92542857D01*
X135735714Y-92590476D01*
X135688095Y-92685714D01*
X135640476Y-92733333D01*
X135545238Y-92780952D01*
X135354761Y-92780952D01*
X135259523Y-92828571D01*
X135211904Y-92876190D01*
X135164285Y-92971428D01*
X135164285Y-93161904D01*
X135211904Y-93257142D01*
X135259523Y-93304761D01*
X135354761Y-93352380D01*
X135545238Y-93352380D01*
X135640476Y-93304761D01*
X135688095Y-93257142D01*
X135735714Y-93161904D01*
X135735714Y-92971428D01*
X135688095Y-92876190D01*
X135640476Y-92828571D01*
X135545238Y-92780952D01*
%TO.C,R19*%
X120502380Y-95792857D02*
X120026190Y-96126190D01*
X120502380Y-96364285D02*
X119502380Y-96364285D01*
X119502380Y-95983333D01*
X119550000Y-95888095D01*
X119597619Y-95840476D01*
X119692857Y-95792857D01*
X119835714Y-95792857D01*
X119930952Y-95840476D01*
X119978571Y-95888095D01*
X120026190Y-95983333D01*
X120026190Y-96364285D01*
X120502380Y-94840476D02*
X120502380Y-95411904D01*
X120502380Y-95126190D02*
X119502380Y-95126190D01*
X119645238Y-95221428D01*
X119740476Y-95316666D01*
X119788095Y-95411904D01*
X120502380Y-94364285D02*
X120502380Y-94173809D01*
X120454761Y-94078571D01*
X120407142Y-94030952D01*
X120264285Y-93935714D01*
X120073809Y-93888095D01*
X119692857Y-93888095D01*
X119597619Y-93935714D01*
X119550000Y-93983333D01*
X119502380Y-94078571D01*
X119502380Y-94269047D01*
X119550000Y-94364285D01*
X119597619Y-94411904D01*
X119692857Y-94459523D01*
X119930952Y-94459523D01*
X120026190Y-94411904D01*
X120073809Y-94364285D01*
X120121428Y-94269047D01*
X120121428Y-94078571D01*
X120073809Y-93983333D01*
X120026190Y-93935714D01*
X119930952Y-93888095D01*
%TO.C,U3*%
X150749523Y-90787619D02*
X151267619Y-90787619D01*
X151328571Y-90757142D01*
X151359047Y-90726666D01*
X151389523Y-90665714D01*
X151389523Y-90543809D01*
X151359047Y-90482857D01*
X151328571Y-90452380D01*
X151267619Y-90421904D01*
X150749523Y-90421904D01*
X150749523Y-90178095D02*
X150749523Y-89781904D01*
X150993333Y-89995238D01*
X150993333Y-89903809D01*
X151023809Y-89842857D01*
X151054285Y-89812380D01*
X151115238Y-89781904D01*
X151267619Y-89781904D01*
X151328571Y-89812380D01*
X151359047Y-89842857D01*
X151389523Y-89903809D01*
X151389523Y-90086666D01*
X151359047Y-90147619D01*
X151328571Y-90178095D01*
%TO.C,C2*%
X116033333Y-87257142D02*
X115985714Y-87304761D01*
X115842857Y-87352380D01*
X115747619Y-87352380D01*
X115604761Y-87304761D01*
X115509523Y-87209523D01*
X115461904Y-87114285D01*
X115414285Y-86923809D01*
X115414285Y-86780952D01*
X115461904Y-86590476D01*
X115509523Y-86495238D01*
X115604761Y-86400000D01*
X115747619Y-86352380D01*
X115842857Y-86352380D01*
X115985714Y-86400000D01*
X116033333Y-86447619D01*
X116414285Y-86447619D02*
X116461904Y-86400000D01*
X116557142Y-86352380D01*
X116795238Y-86352380D01*
X116890476Y-86400000D01*
X116938095Y-86447619D01*
X116985714Y-86542857D01*
X116985714Y-86638095D01*
X116938095Y-86780952D01*
X116366666Y-87352380D01*
X116985714Y-87352380D01*
%TO.C,PAD3*%
X113933333Y-103952380D02*
X113933333Y-102952380D01*
X114314285Y-102952380D01*
X114409523Y-103000000D01*
X114457142Y-103047619D01*
X114504761Y-103142857D01*
X114504761Y-103285714D01*
X114457142Y-103380952D01*
X114409523Y-103428571D01*
X114314285Y-103476190D01*
X113933333Y-103476190D01*
X114885714Y-103666666D02*
X115361904Y-103666666D01*
X114790476Y-103952380D02*
X115123809Y-102952380D01*
X115457142Y-103952380D01*
X115790476Y-103952380D02*
X115790476Y-102952380D01*
X116028571Y-102952380D01*
X116171428Y-103000000D01*
X116266666Y-103095238D01*
X116314285Y-103190476D01*
X116361904Y-103380952D01*
X116361904Y-103523809D01*
X116314285Y-103714285D01*
X116266666Y-103809523D01*
X116171428Y-103904761D01*
X116028571Y-103952380D01*
X115790476Y-103952380D01*
X116695238Y-102952380D02*
X117314285Y-102952380D01*
X116980952Y-103333333D01*
X117123809Y-103333333D01*
X117219047Y-103380952D01*
X117266666Y-103428571D01*
X117314285Y-103523809D01*
X117314285Y-103761904D01*
X117266666Y-103857142D01*
X117219047Y-103904761D01*
X117123809Y-103952380D01*
X116838095Y-103952380D01*
X116742857Y-103904761D01*
X116695238Y-103857142D01*
%TO.C,J2*%
X152016666Y-127462380D02*
X152016666Y-128176666D01*
X151969047Y-128319523D01*
X151873809Y-128414761D01*
X151730952Y-128462380D01*
X151635714Y-128462380D01*
X152445238Y-127557619D02*
X152492857Y-127510000D01*
X152588095Y-127462380D01*
X152826190Y-127462380D01*
X152921428Y-127510000D01*
X152969047Y-127557619D01*
X153016666Y-127652857D01*
X153016666Y-127748095D01*
X152969047Y-127890952D01*
X152397619Y-128462380D01*
X153016666Y-128462380D01*
%TO.C,D7*%
X116211904Y-93402380D02*
X116211904Y-92402380D01*
X116450000Y-92402380D01*
X116592857Y-92450000D01*
X116688095Y-92545238D01*
X116735714Y-92640476D01*
X116783333Y-92830952D01*
X116783333Y-92973809D01*
X116735714Y-93164285D01*
X116688095Y-93259523D01*
X116592857Y-93354761D01*
X116450000Y-93402380D01*
X116211904Y-93402380D01*
X117116666Y-92402380D02*
X117783333Y-92402380D01*
X117354761Y-93402380D01*
%TO.C,D3*%
X131202380Y-93288095D02*
X130202380Y-93288095D01*
X130202380Y-93050000D01*
X130250000Y-92907142D01*
X130345238Y-92811904D01*
X130440476Y-92764285D01*
X130630952Y-92716666D01*
X130773809Y-92716666D01*
X130964285Y-92764285D01*
X131059523Y-92811904D01*
X131154761Y-92907142D01*
X131202380Y-93050000D01*
X131202380Y-93288095D01*
X130202380Y-92383333D02*
X130202380Y-91764285D01*
X130583333Y-92097619D01*
X130583333Y-91954761D01*
X130630952Y-91859523D01*
X130678571Y-91811904D01*
X130773809Y-91764285D01*
X131011904Y-91764285D01*
X131107142Y-91811904D01*
X131154761Y-91859523D01*
X131202380Y-91954761D01*
X131202380Y-92240476D01*
X131154761Y-92335714D01*
X131107142Y-92383333D01*
%TO.C,R11*%
X127457142Y-98352380D02*
X127123809Y-97876190D01*
X126885714Y-98352380D02*
X126885714Y-97352380D01*
X127266666Y-97352380D01*
X127361904Y-97400000D01*
X127409523Y-97447619D01*
X127457142Y-97542857D01*
X127457142Y-97685714D01*
X127409523Y-97780952D01*
X127361904Y-97828571D01*
X127266666Y-97876190D01*
X126885714Y-97876190D01*
X128409523Y-98352380D02*
X127838095Y-98352380D01*
X128123809Y-98352380D02*
X128123809Y-97352380D01*
X128028571Y-97495238D01*
X127933333Y-97590476D01*
X127838095Y-97638095D01*
X129361904Y-98352380D02*
X128790476Y-98352380D01*
X129076190Y-98352380D02*
X129076190Y-97352380D01*
X128980952Y-97495238D01*
X128885714Y-97590476D01*
X128790476Y-97638095D01*
%TO.C,D9*%
X152211904Y-93342380D02*
X152211904Y-92342380D01*
X152450000Y-92342380D01*
X152592857Y-92390000D01*
X152688095Y-92485238D01*
X152735714Y-92580476D01*
X152783333Y-92770952D01*
X152783333Y-92913809D01*
X152735714Y-93104285D01*
X152688095Y-93199523D01*
X152592857Y-93294761D01*
X152450000Y-93342380D01*
X152211904Y-93342380D01*
X153259523Y-93342380D02*
X153450000Y-93342380D01*
X153545238Y-93294761D01*
X153592857Y-93247142D01*
X153688095Y-93104285D01*
X153735714Y-92913809D01*
X153735714Y-92532857D01*
X153688095Y-92437619D01*
X153640476Y-92390000D01*
X153545238Y-92342380D01*
X153354761Y-92342380D01*
X153259523Y-92390000D01*
X153211904Y-92437619D01*
X153164285Y-92532857D01*
X153164285Y-92770952D01*
X153211904Y-92866190D01*
X153259523Y-92913809D01*
X153354761Y-92961428D01*
X153545238Y-92961428D01*
X153640476Y-92913809D01*
X153688095Y-92866190D01*
X153735714Y-92770952D01*
%TO.C,D6*%
X151352380Y-93388095D02*
X150352380Y-93388095D01*
X150352380Y-93150000D01*
X150400000Y-93007142D01*
X150495238Y-92911904D01*
X150590476Y-92864285D01*
X150780952Y-92816666D01*
X150923809Y-92816666D01*
X151114285Y-92864285D01*
X151209523Y-92911904D01*
X151304761Y-93007142D01*
X151352380Y-93150000D01*
X151352380Y-93388095D01*
X150352380Y-91959523D02*
X150352380Y-92150000D01*
X150400000Y-92245238D01*
X150447619Y-92292857D01*
X150590476Y-92388095D01*
X150780952Y-92435714D01*
X151161904Y-92435714D01*
X151257142Y-92388095D01*
X151304761Y-92340476D01*
X151352380Y-92245238D01*
X151352380Y-92054761D01*
X151304761Y-91959523D01*
X151257142Y-91911904D01*
X151161904Y-91864285D01*
X150923809Y-91864285D01*
X150828571Y-91911904D01*
X150780952Y-91959523D01*
X150733333Y-92054761D01*
X150733333Y-92245238D01*
X150780952Y-92340476D01*
X150828571Y-92388095D01*
X150923809Y-92435714D01*
%TO.C,PAD2*%
X148183333Y-103952380D02*
X148183333Y-102952380D01*
X148564285Y-102952380D01*
X148659523Y-103000000D01*
X148707142Y-103047619D01*
X148754761Y-103142857D01*
X148754761Y-103285714D01*
X148707142Y-103380952D01*
X148659523Y-103428571D01*
X148564285Y-103476190D01*
X148183333Y-103476190D01*
X149135714Y-103666666D02*
X149611904Y-103666666D01*
X149040476Y-103952380D02*
X149373809Y-102952380D01*
X149707142Y-103952380D01*
X150040476Y-103952380D02*
X150040476Y-102952380D01*
X150278571Y-102952380D01*
X150421428Y-103000000D01*
X150516666Y-103095238D01*
X150564285Y-103190476D01*
X150611904Y-103380952D01*
X150611904Y-103523809D01*
X150564285Y-103714285D01*
X150516666Y-103809523D01*
X150421428Y-103904761D01*
X150278571Y-103952380D01*
X150040476Y-103952380D01*
X150992857Y-103047619D02*
X151040476Y-103000000D01*
X151135714Y-102952380D01*
X151373809Y-102952380D01*
X151469047Y-103000000D01*
X151516666Y-103047619D01*
X151564285Y-103142857D01*
X151564285Y-103238095D01*
X151516666Y-103380952D01*
X150945238Y-103952380D01*
X151564285Y-103952380D01*
%TO.C,D4*%
X133402380Y-93288095D02*
X132402380Y-93288095D01*
X132402380Y-93050000D01*
X132450000Y-92907142D01*
X132545238Y-92811904D01*
X132640476Y-92764285D01*
X132830952Y-92716666D01*
X132973809Y-92716666D01*
X133164285Y-92764285D01*
X133259523Y-92811904D01*
X133354761Y-92907142D01*
X133402380Y-93050000D01*
X133402380Y-93288095D01*
X132735714Y-91859523D02*
X133402380Y-91859523D01*
X132354761Y-92097619D02*
X133069047Y-92335714D01*
X133069047Y-91716666D01*
%TO.C,U1*%
X115049523Y-90437619D02*
X115567619Y-90437619D01*
X115628571Y-90407142D01*
X115659047Y-90376666D01*
X115689523Y-90315714D01*
X115689523Y-90193809D01*
X115659047Y-90132857D01*
X115628571Y-90102380D01*
X115567619Y-90071904D01*
X115049523Y-90071904D01*
X115689523Y-89431904D02*
X115689523Y-89797619D01*
X115689523Y-89614761D02*
X115049523Y-89614761D01*
X115140952Y-89675714D01*
X115201904Y-89736666D01*
X115232380Y-89797619D01*
%TO.C,D1*%
X113302380Y-93338095D02*
X112302380Y-93338095D01*
X112302380Y-93100000D01*
X112350000Y-92957142D01*
X112445238Y-92861904D01*
X112540476Y-92814285D01*
X112730952Y-92766666D01*
X112873809Y-92766666D01*
X113064285Y-92814285D01*
X113159523Y-92861904D01*
X113254761Y-92957142D01*
X113302380Y-93100000D01*
X113302380Y-93338095D01*
X113302380Y-91814285D02*
X113302380Y-92385714D01*
X113302380Y-92100000D02*
X112302380Y-92100000D01*
X112445238Y-92195238D01*
X112540476Y-92290476D01*
X112588095Y-92385714D01*
%TO.C,R5*%
X109933333Y-97852380D02*
X109600000Y-97376190D01*
X109361904Y-97852380D02*
X109361904Y-96852380D01*
X109742857Y-96852380D01*
X109838095Y-96900000D01*
X109885714Y-96947619D01*
X109933333Y-97042857D01*
X109933333Y-97185714D01*
X109885714Y-97280952D01*
X109838095Y-97328571D01*
X109742857Y-97376190D01*
X109361904Y-97376190D01*
X110838095Y-96852380D02*
X110361904Y-96852380D01*
X110314285Y-97328571D01*
X110361904Y-97280952D01*
X110457142Y-97233333D01*
X110695238Y-97233333D01*
X110790476Y-97280952D01*
X110838095Y-97328571D01*
X110885714Y-97423809D01*
X110885714Y-97661904D01*
X110838095Y-97757142D01*
X110790476Y-97804761D01*
X110695238Y-97852380D01*
X110457142Y-97852380D01*
X110361904Y-97804761D01*
X110314285Y-97757142D01*
%TO.C,C5*%
X157007142Y-93266666D02*
X157054761Y-93314285D01*
X157102380Y-93457142D01*
X157102380Y-93552380D01*
X157054761Y-93695238D01*
X156959523Y-93790476D01*
X156864285Y-93838095D01*
X156673809Y-93885714D01*
X156530952Y-93885714D01*
X156340476Y-93838095D01*
X156245238Y-93790476D01*
X156150000Y-93695238D01*
X156102380Y-93552380D01*
X156102380Y-93457142D01*
X156150000Y-93314285D01*
X156197619Y-93266666D01*
X156102380Y-92361904D02*
X156102380Y-92838095D01*
X156578571Y-92885714D01*
X156530952Y-92838095D01*
X156483333Y-92742857D01*
X156483333Y-92504761D01*
X156530952Y-92409523D01*
X156578571Y-92361904D01*
X156673809Y-92314285D01*
X156911904Y-92314285D01*
X157007142Y-92361904D01*
X157054761Y-92409523D01*
X157102380Y-92504761D01*
X157102380Y-92742857D01*
X157054761Y-92838095D01*
X157007142Y-92885714D01*
%TO.C,C4*%
X133783333Y-87057142D02*
X133735714Y-87104761D01*
X133592857Y-87152380D01*
X133497619Y-87152380D01*
X133354761Y-87104761D01*
X133259523Y-87009523D01*
X133211904Y-86914285D01*
X133164285Y-86723809D01*
X133164285Y-86580952D01*
X133211904Y-86390476D01*
X133259523Y-86295238D01*
X133354761Y-86200000D01*
X133497619Y-86152380D01*
X133592857Y-86152380D01*
X133735714Y-86200000D01*
X133783333Y-86247619D01*
X134640476Y-86485714D02*
X134640476Y-87152380D01*
X134402380Y-86104761D02*
X134164285Y-86819047D01*
X134783333Y-86819047D01*
%TO.C,R8*%
X133683333Y-85352380D02*
X133350000Y-84876190D01*
X133111904Y-85352380D02*
X133111904Y-84352380D01*
X133492857Y-84352380D01*
X133588095Y-84400000D01*
X133635714Y-84447619D01*
X133683333Y-84542857D01*
X133683333Y-84685714D01*
X133635714Y-84780952D01*
X133588095Y-84828571D01*
X133492857Y-84876190D01*
X133111904Y-84876190D01*
X134254761Y-84780952D02*
X134159523Y-84733333D01*
X134111904Y-84685714D01*
X134064285Y-84590476D01*
X134064285Y-84542857D01*
X134111904Y-84447619D01*
X134159523Y-84400000D01*
X134254761Y-84352380D01*
X134445238Y-84352380D01*
X134540476Y-84400000D01*
X134588095Y-84447619D01*
X134635714Y-84542857D01*
X134635714Y-84590476D01*
X134588095Y-84685714D01*
X134540476Y-84733333D01*
X134445238Y-84780952D01*
X134254761Y-84780952D01*
X134159523Y-84828571D01*
X134111904Y-84876190D01*
X134064285Y-84971428D01*
X134064285Y-85161904D01*
X134111904Y-85257142D01*
X134159523Y-85304761D01*
X134254761Y-85352380D01*
X134445238Y-85352380D01*
X134540476Y-85304761D01*
X134588095Y-85257142D01*
X134635714Y-85161904D01*
X134635714Y-84971428D01*
X134588095Y-84876190D01*
X134540476Y-84828571D01*
X134445238Y-84780952D01*
%TO.C,R18*%
X145094642Y-93422380D02*
X144761309Y-92946190D01*
X144523214Y-93422380D02*
X144523214Y-92422380D01*
X144904166Y-92422380D01*
X144999404Y-92470000D01*
X145047023Y-92517619D01*
X145094642Y-92612857D01*
X145094642Y-92755714D01*
X145047023Y-92850952D01*
X144999404Y-92898571D01*
X144904166Y-92946190D01*
X144523214Y-92946190D01*
X146047023Y-93422380D02*
X145475595Y-93422380D01*
X145761309Y-93422380D02*
X145761309Y-92422380D01*
X145666071Y-92565238D01*
X145570833Y-92660476D01*
X145475595Y-92708095D01*
X146618452Y-92850952D02*
X146523214Y-92803333D01*
X146475595Y-92755714D01*
X146427976Y-92660476D01*
X146427976Y-92612857D01*
X146475595Y-92517619D01*
X146523214Y-92470000D01*
X146618452Y-92422380D01*
X146808928Y-92422380D01*
X146904166Y-92470000D01*
X146951785Y-92517619D01*
X146999404Y-92612857D01*
X146999404Y-92660476D01*
X146951785Y-92755714D01*
X146904166Y-92803333D01*
X146808928Y-92850952D01*
X146618452Y-92850952D01*
X146523214Y-92898571D01*
X146475595Y-92946190D01*
X146427976Y-93041428D01*
X146427976Y-93231904D01*
X146475595Y-93327142D01*
X146523214Y-93374761D01*
X146618452Y-93422380D01*
X146808928Y-93422380D01*
X146904166Y-93374761D01*
X146951785Y-93327142D01*
X146999404Y-93231904D01*
X146999404Y-93041428D01*
X146951785Y-92946190D01*
X146904166Y-92898571D01*
X146808928Y-92850952D01*
%TO.C,R13*%
X144907142Y-85872380D02*
X144573809Y-85396190D01*
X144335714Y-85872380D02*
X144335714Y-84872380D01*
X144716666Y-84872380D01*
X144811904Y-84920000D01*
X144859523Y-84967619D01*
X144907142Y-85062857D01*
X144907142Y-85205714D01*
X144859523Y-85300952D01*
X144811904Y-85348571D01*
X144716666Y-85396190D01*
X144335714Y-85396190D01*
X145859523Y-85872380D02*
X145288095Y-85872380D01*
X145573809Y-85872380D02*
X145573809Y-84872380D01*
X145478571Y-85015238D01*
X145383333Y-85110476D01*
X145288095Y-85158095D01*
X146192857Y-84872380D02*
X146811904Y-84872380D01*
X146478571Y-85253333D01*
X146621428Y-85253333D01*
X146716666Y-85300952D01*
X146764285Y-85348571D01*
X146811904Y-85443809D01*
X146811904Y-85681904D01*
X146764285Y-85777142D01*
X146716666Y-85824761D01*
X146621428Y-85872380D01*
X146335714Y-85872380D01*
X146240476Y-85824761D01*
X146192857Y-85777142D01*
D11*
%TO.C,R1*%
X109545276Y-86527500D02*
X110054724Y-86527500D01*
X109545276Y-87572500D02*
X110054724Y-87572500D01*
D12*
%TO.C,U2*%
X137305000Y-89100000D02*
X137305000Y-90900000D01*
X134195000Y-89100000D02*
X134195000Y-90900000D01*
D13*
X134834000Y-92540000D02*
G75*
G03*
X134834000Y-92540000I-100000J0D01*
G01*
D11*
%TO.C,D5*%
X147815000Y-94500000D02*
X147815000Y-96960000D01*
X147815000Y-96960000D02*
X149285000Y-96960000D01*
X149285000Y-96960000D02*
X149285000Y-94500000D01*
%TO.C,SW1*%
X123580000Y-123430000D02*
X123580000Y-123400000D01*
X117120000Y-116970000D02*
X123580000Y-116970000D01*
X117120000Y-118900000D02*
X117120000Y-121500000D01*
X117120000Y-123430000D02*
X117120000Y-123400000D01*
X117120000Y-117000000D02*
X117120000Y-116970000D01*
X117120000Y-123430000D02*
X123580000Y-123430000D01*
X123580000Y-118900000D02*
X123580000Y-121500000D01*
X123580000Y-116970000D02*
X123580000Y-117000000D01*
%TO.C,R12*%
X127695276Y-94077500D02*
X128204724Y-94077500D01*
X127695276Y-95122500D02*
X128204724Y-95122500D01*
%TO.C,C6*%
X153800000Y-87835000D02*
X156285000Y-87835000D01*
X156285000Y-87835000D02*
X156285000Y-86265000D01*
X156285000Y-86265000D02*
X153800000Y-86265000D01*
%TO.C,R21*%
X155422500Y-95504724D02*
X155422500Y-94995276D01*
X154377500Y-95504724D02*
X154377500Y-94995276D01*
%TO.C,R7*%
X127345276Y-86327500D02*
X127854724Y-86327500D01*
X127345276Y-87372500D02*
X127854724Y-87372500D01*
%TO.C,R17*%
X145482776Y-95627500D02*
X145992224Y-95627500D01*
X145482776Y-96672500D02*
X145992224Y-96672500D01*
%TO.C,C1*%
X121685000Y-91385000D02*
X121685000Y-88900000D01*
X120115000Y-91385000D02*
X121685000Y-91385000D01*
X120115000Y-88900000D02*
X120115000Y-91385000D01*
%TO.C,R2*%
X119067224Y-85372500D02*
X118557776Y-85372500D01*
X119067224Y-84327500D02*
X118557776Y-84327500D01*
%TO.C,R20*%
X136427500Y-95804724D02*
X136427500Y-95295276D01*
X137472500Y-95804724D02*
X137472500Y-95295276D01*
%TO.C,C3*%
X137965000Y-89000000D02*
X137965000Y-91485000D01*
X139535000Y-91485000D02*
X139535000Y-89000000D01*
X137965000Y-91485000D02*
X139535000Y-91485000D01*
%TO.C,R6*%
X109882776Y-93677500D02*
X110392224Y-93677500D01*
X109882776Y-94722500D02*
X110392224Y-94722500D01*
%TO.C,D2*%
X114202500Y-96760000D02*
X115672500Y-96760000D01*
X114202500Y-94300000D02*
X114202500Y-96760000D01*
X115672500Y-96760000D02*
X115672500Y-94300000D01*
%TO.C,R14*%
X154854724Y-84327500D02*
X154345276Y-84327500D01*
X154854724Y-85372500D02*
X154345276Y-85372500D01*
%TO.C,D8*%
X134315000Y-97185000D02*
X135785000Y-97185000D01*
X134315000Y-94725000D02*
X134315000Y-97185000D01*
X135785000Y-97185000D02*
X135785000Y-94725000D01*
%TO.C,R19*%
X119172500Y-95442224D02*
X119172500Y-94932776D01*
X118127500Y-95442224D02*
X118127500Y-94932776D01*
D12*
%TO.C,U3*%
X152345000Y-89550000D02*
X152345000Y-91350000D01*
X155455000Y-89550000D02*
X155455000Y-91350000D01*
D13*
X152984000Y-92990000D02*
G75*
G03*
X152984000Y-92990000I-100000J0D01*
G01*
D11*
%TO.C,C2*%
X120485000Y-87585000D02*
X120485000Y-86015000D01*
X120485000Y-86015000D02*
X118000000Y-86015000D01*
X118000000Y-87585000D02*
X120485000Y-87585000D01*
%TO.C,J2*%
X152350000Y-127010000D02*
X150290000Y-127010000D01*
X150290000Y-127010000D02*
X150290000Y-118890000D01*
X154410000Y-127010000D02*
X153350000Y-127010000D01*
X154410000Y-124950000D02*
X152350000Y-124950000D01*
X154410000Y-125950000D02*
X154410000Y-127010000D01*
X154410000Y-118890000D02*
X150290000Y-118890000D01*
X152350000Y-124950000D02*
X152350000Y-127010000D01*
X154410000Y-124950000D02*
X154410000Y-118890000D01*
%TO.C,D7*%
X116152500Y-96760000D02*
X117622500Y-96760000D01*
X117622500Y-96760000D02*
X117622500Y-94300000D01*
X116152500Y-94300000D02*
X116152500Y-96760000D01*
%TO.C,D3*%
X131435000Y-97160000D02*
X131435000Y-94700000D01*
X129965000Y-97160000D02*
X131435000Y-97160000D01*
X129965000Y-94700000D02*
X129965000Y-97160000D01*
%TO.C,R11*%
X127695276Y-96922500D02*
X128204724Y-96922500D01*
X127695276Y-95877500D02*
X128204724Y-95877500D01*
%TO.C,D9*%
X152265000Y-94500000D02*
X152265000Y-96960000D01*
X152265000Y-96960000D02*
X153735000Y-96960000D01*
X153735000Y-96960000D02*
X153735000Y-94500000D01*
%TO.C,D6*%
X151585000Y-96960000D02*
X151585000Y-94500000D01*
X150115000Y-94500000D02*
X150115000Y-96960000D01*
X150115000Y-96960000D02*
X151585000Y-96960000D01*
%TO.C,D4*%
X133685000Y-97185000D02*
X133685000Y-94725000D01*
X132215000Y-97185000D02*
X133685000Y-97185000D01*
X132215000Y-94725000D02*
X132215000Y-97185000D01*
D12*
%TO.C,U1*%
X119455000Y-89147500D02*
X119455000Y-90947500D01*
X116345000Y-89147500D02*
X116345000Y-90947500D01*
D13*
X116984000Y-92587500D02*
G75*
G03*
X116984000Y-92587500I-100000J0D01*
G01*
D11*
%TO.C,D1*%
X112152500Y-96735000D02*
X113622500Y-96735000D01*
X112152500Y-94275000D02*
X112152500Y-96735000D01*
X113622500Y-96735000D02*
X113622500Y-94275000D01*
%TO.C,R5*%
X109895276Y-95577500D02*
X110404724Y-95577500D01*
X109895276Y-96622500D02*
X110404724Y-96622500D01*
%TO.C,C5*%
X155865000Y-91985000D02*
X157435000Y-91985000D01*
X157435000Y-91985000D02*
X157435000Y-89500000D01*
X155865000Y-89500000D02*
X155865000Y-91985000D01*
%TO.C,C4*%
X138235000Y-85915000D02*
X135750000Y-85915000D01*
X135750000Y-87485000D02*
X138235000Y-87485000D01*
X138235000Y-87485000D02*
X138235000Y-85915000D01*
%TO.C,R8*%
X136792224Y-84327500D02*
X136282776Y-84327500D01*
X136792224Y-85372500D02*
X136282776Y-85372500D01*
%TO.C,R18*%
X145482776Y-93877500D02*
X145992224Y-93877500D01*
X145482776Y-94922500D02*
X145992224Y-94922500D01*
%TO.C,R13*%
X145295276Y-87372500D02*
X145804724Y-87372500D01*
X145295276Y-86327500D02*
X145804724Y-86327500D01*
%TD*%
M02*
