%TF.GenerationSoftware,KiCad,Pcbnew,(6.0.1-0)*%
%TF.CreationDate,2022-03-13T12:33:57+03:30*%
%TF.ProjectId,touch_panel,746f7563-685f-4706-916e-656c2e6b6963,rev?*%
%TF.SameCoordinates,Original*%
%TF.FileFunction,Copper,L2,Bot*%
%TF.FilePolarity,Positive*%
%FSLAX46Y46*%
G04 Gerber Fmt 4.6, Leading zero omitted, Abs format (unit mm)*
G04 Created by KiCad (PCBNEW (6.0.1-0)) date 2022-03-13 12:33:57*
%MOMM*%
%LPD*%
G01*
G04 APERTURE LIST*
G04 Aperture macros list*
%AMRoundRect*
0 Rectangle with rounded corners*
0 $1 Rounding radius*
0 $2 $3 $4 $5 $6 $7 $8 $9 X,Y pos of 4 corners*
0 Add a 4 corners polygon primitive as box body*
4,1,4,$2,$3,$4,$5,$6,$7,$8,$9,$2,$3,0*
0 Add four circle primitives for the rounded corners*
1,1,$1+$1,$2,$3*
1,1,$1+$1,$4,$5*
1,1,$1+$1,$6,$7*
1,1,$1+$1,$8,$9*
0 Add four rect primitives between the rounded corners*
20,1,$1+$1,$2,$3,$4,$5,0*
20,1,$1+$1,$4,$5,$6,$7,0*
20,1,$1+$1,$6,$7,$8,$9,0*
20,1,$1+$1,$8,$9,$2,$3,0*%
G04 Aperture macros list end*
%TA.AperFunction,ComponentPad*%
%ADD10C,1.000000*%
%TD*%
%TA.AperFunction,ComponentPad*%
%ADD11R,1.350000X1.350000*%
%TD*%
%TA.AperFunction,ComponentPad*%
%ADD12O,1.350000X1.350000*%
%TD*%
%TA.AperFunction,SMDPad,CuDef*%
%ADD13RoundRect,0.237500X-0.250000X-0.237500X0.250000X-0.237500X0.250000X0.237500X-0.250000X0.237500X0*%
%TD*%
%TA.AperFunction,SMDPad,CuDef*%
%ADD14R,0.650000X1.220000*%
%TD*%
%TA.AperFunction,SMDPad,CuDef*%
%ADD15RoundRect,0.237500X0.250000X0.237500X-0.250000X0.237500X-0.250000X-0.237500X0.250000X-0.237500X0*%
%TD*%
%TA.AperFunction,SMDPad,CuDef*%
%ADD16R,1.000000X2.500000*%
%TD*%
%TA.AperFunction,SMDPad,CuDef*%
%ADD17R,1.800000X1.000000*%
%TD*%
%TA.AperFunction,ViaPad*%
%ADD18C,0.800000*%
%TD*%
%TA.AperFunction,Conductor*%
%ADD19C,0.250000*%
%TD*%
G04 APERTURE END LIST*
D10*
%TO.P,PAD1,6*%
%TO.N,Net-(C3-Pad1)*%
X132500000Y-103950000D03*
%TD*%
%TO.P,PAD3,6*%
%TO.N,Net-(C1-Pad1)*%
X115600000Y-104000000D03*
%TD*%
D11*
%TO.P,J2,1,Pin_1*%
%TO.N,RST*%
X153350000Y-125950000D03*
D12*
%TO.P,J2,2,Pin_2*%
%TO.N,TX*%
X151350000Y-125950000D03*
%TO.P,J2,3,Pin_3*%
%TO.N,RX*%
X153350000Y-123950000D03*
%TO.P,J2,4,Pin_4*%
%TO.N,BLUELED*%
X151350000Y-123950000D03*
%TO.P,J2,5,Pin_5*%
%TO.N,GND*%
X153350000Y-121950000D03*
%TO.P,J2,6,Pin_6*%
%TO.N,+3V3*%
X151350000Y-121950000D03*
%TO.P,J2,7*%
%TO.N,N/C*%
X153350000Y-119950000D03*
%TO.P,J2,8*%
X151350000Y-119950000D03*
%TD*%
D10*
%TO.P,PAD2,6*%
%TO.N,Net-(C5-Pad1)*%
X149850000Y-104000000D03*
%TD*%
D13*
%TO.P,R15,1*%
%TO.N,BLUELED*%
X149325000Y-85250000D03*
%TO.P,R15,2*%
%TO.N,Net-(Q6-Pad2)*%
X151150000Y-85250000D03*
%TD*%
D14*
%TO.P,Q6,1,E*%
%TO.N,GND*%
X149350000Y-89190000D03*
%TO.P,Q6,2,B*%
%TO.N,Net-(Q6-Pad2)*%
X151250000Y-89190000D03*
%TO.P,Q6,3,C*%
%TO.N,Net-(Q6-Pad3)*%
X150300000Y-91810000D03*
%TD*%
%TO.P,Q1,1,E*%
%TO.N,GND*%
X108800000Y-89040000D03*
%TO.P,Q1,2,B*%
%TO.N,Net-(Q1-Pad2)*%
X110700000Y-89040000D03*
%TO.P,Q1,3,C*%
%TO.N,Net-(Q1-Pad3)*%
X109750000Y-91660000D03*
%TD*%
D15*
%TO.P,R3,1*%
%TO.N,BLUELED*%
X114662500Y-85300000D03*
%TO.P,R3,2*%
%TO.N,Net-(Q2-Pad2)*%
X112837500Y-85300000D03*
%TD*%
D14*
%TO.P,Q3,1,E*%
%TO.N,GND*%
X126550000Y-88940000D03*
%TO.P,Q3,2,B*%
%TO.N,Net-(Q3-Pad2)*%
X128450000Y-88940000D03*
%TO.P,Q3,3,C*%
%TO.N,Net-(Q3-Pad3)*%
X127500000Y-91560000D03*
%TD*%
D13*
%TO.P,R10,1*%
%TO.N,GND*%
X130887500Y-87050000D03*
%TO.P,R10,2*%
%TO.N,Net-(Q4-Pad2)*%
X132712500Y-87050000D03*
%TD*%
D14*
%TO.P,Q4,1,E*%
%TO.N,GND*%
X130800000Y-88990000D03*
%TO.P,Q4,2,B*%
%TO.N,Net-(Q4-Pad2)*%
X132700000Y-88990000D03*
%TO.P,Q4,3,C*%
%TO.N,Net-(Q4-Pad3)*%
X131750000Y-91610000D03*
%TD*%
%TO.P,Q2,1,E*%
%TO.N,GND*%
X112850000Y-89090000D03*
%TO.P,Q2,2,B*%
%TO.N,Net-(Q2-Pad2)*%
X114750000Y-89090000D03*
%TO.P,Q2,3,C*%
%TO.N,Net-(Q2-Pad3)*%
X113800000Y-91710000D03*
%TD*%
D16*
%TO.P,U4,1,~{RST}*%
%TO.N,RST*%
X116350000Y-112000000D03*
%TO.P,U4,2,ADC*%
%TO.N,TEMP*%
X118350000Y-112000000D03*
%TO.P,U4,3,EN*%
%TO.N,+3V3*%
X120350000Y-112000000D03*
%TO.P,U4,4,GPIO16*%
%TO.N,unconnected-(U4-Pad4)*%
X122350000Y-112000000D03*
%TO.P,U4,5,GPIO14*%
%TO.N,Touch 3*%
X124350000Y-112000000D03*
%TO.P,U4,6,GPIO12*%
%TO.N,Relay 3*%
X126350000Y-112000000D03*
%TO.P,U4,7,GPIO13*%
%TO.N,Relay 2*%
X128350000Y-112000000D03*
%TO.P,U4,8,VCC*%
%TO.N,+3V3*%
X130350000Y-112000000D03*
D17*
%TO.P,U4,9,CS0*%
%TO.N,unconnected-(U4-Pad9)*%
X131850000Y-114600000D03*
%TO.P,U4,10,MISO*%
%TO.N,unconnected-(U4-Pad10)*%
X131850000Y-116600000D03*
%TO.P,U4,11,GPIO9*%
%TO.N,unconnected-(U4-Pad11)*%
X131850000Y-118600000D03*
%TO.P,U4,12,GPIO10*%
%TO.N,unconnected-(U4-Pad12)*%
X131850000Y-120600000D03*
%TO.P,U4,13,MOSI*%
%TO.N,unconnected-(U4-Pad13)*%
X131850000Y-122600000D03*
%TO.P,U4,14,SCLK*%
%TO.N,unconnected-(U4-Pad14)*%
X131850000Y-124600000D03*
D16*
%TO.P,U4,15,GND*%
%TO.N,GND*%
X130350000Y-127200000D03*
%TO.P,U4,16,GPIO15*%
%TO.N,Relay 1*%
X128350000Y-127200000D03*
%TO.P,U4,17,GPIO2*%
%TO.N,unconnected-(U4-Pad17)*%
X126350000Y-127200000D03*
%TO.P,U4,18,GPIO0*%
%TO.N,BLUELED*%
X124350000Y-127200000D03*
%TO.P,U4,19,GPIO4*%
%TO.N,Touch 1*%
X122350000Y-127200000D03*
%TO.P,U4,20,GPIO5*%
%TO.N,Touch 2*%
X120350000Y-127200000D03*
%TO.P,U4,21,GPIO3/RXD*%
%TO.N,RX*%
X118350000Y-127200000D03*
%TO.P,U4,22,GPIO1/TXD*%
%TO.N,TX*%
X116350000Y-127200000D03*
%TD*%
D13*
%TO.P,R4,1*%
%TO.N,GND*%
X112837500Y-87050000D03*
%TO.P,R4,2*%
%TO.N,Net-(Q2-Pad2)*%
X114662500Y-87050000D03*
%TD*%
D11*
%TO.P,J1,1,Pin_1*%
%TO.N,+3V3*%
X140600000Y-120150000D03*
D12*
%TO.P,J1,2,Pin_2*%
%TO.N,unconnected-(J1-Pad2)*%
X140600000Y-118150000D03*
%TO.P,J1,3,Pin_3*%
%TO.N,Relay 2*%
X138600000Y-120150000D03*
%TO.P,J1,4,Pin_4*%
%TO.N,Relay 1*%
X138600000Y-118150000D03*
%TO.P,J1,5,Pin_5*%
%TO.N,unconnected-(J1-Pad5)*%
X136600000Y-120150000D03*
%TO.P,J1,6,Pin_6*%
%TO.N,Relay 3*%
X136600000Y-118150000D03*
%TO.P,J1,7,Pin_7*%
%TO.N,TEMP*%
X134600000Y-120150000D03*
%TO.P,J1,8,Pin_8*%
%TO.N,GND*%
X134600000Y-118150000D03*
%TD*%
D13*
%TO.P,R16,1*%
%TO.N,GND*%
X149387500Y-87100000D03*
%TO.P,R16,2*%
%TO.N,Net-(Q6-Pad2)*%
X151212500Y-87100000D03*
%TD*%
D15*
%TO.P,R9,1*%
%TO.N,BLUELED*%
X132725000Y-85200000D03*
%TO.P,R9,2*%
%TO.N,Net-(Q4-Pad2)*%
X130900000Y-85200000D03*
%TD*%
D14*
%TO.P,Q5,1,E*%
%TO.N,GND*%
X144600000Y-89140000D03*
%TO.P,Q5,2,B*%
%TO.N,Net-(Q5-Pad2)*%
X146500000Y-89140000D03*
%TO.P,Q5,3,C*%
%TO.N,Net-(Q5-Pad3)*%
X145550000Y-91760000D03*
%TD*%
D18*
%TO.N,Net-(C1-Pad1)*%
X120900000Y-90500000D03*
%TO.N,GND*%
X156650000Y-89500000D03*
X138750000Y-89000000D03*
X116350000Y-124300000D03*
X120900000Y-88900000D03*
%TO.N,+3V3*%
X149775000Y-94425000D03*
%TO.N,Net-(C3-Pad1)*%
X138750000Y-90600000D03*
%TO.N,Net-(C5-Pad1)*%
X156650000Y-91100000D03*
%TO.N,Touch 1*%
X116887500Y-94225000D03*
%TO.N,Touch 2*%
X117900000Y-119650000D03*
X124750000Y-100050000D03*
X135050000Y-94650000D03*
%TO.N,Touch 3*%
X153000000Y-94425000D03*
%TO.N,Relay 2*%
X128300000Y-114500000D03*
%TO.N,Relay 1*%
X128450000Y-124600000D03*
%TO.N,TEMP*%
X118350000Y-112000000D03*
%TO.N,RST*%
X116350000Y-114400000D03*
X124325000Y-117950000D03*
%TO.N,TX*%
X116350000Y-127200000D03*
%TO.N,RX*%
X118350000Y-127200000D03*
%TO.N,BLUELED*%
X124350000Y-127200000D03*
%TO.N,Net-(Q1-Pad2)*%
X110712500Y-87050000D03*
%TO.N,Net-(Q1-Pad3)*%
X109237500Y-96100000D03*
%TO.N,Net-(Q2-Pad3)*%
X109225000Y-94200000D03*
%TO.N,Net-(Q3-Pad2)*%
X128512500Y-86850000D03*
%TO.N,Net-(Q3-Pad3)*%
X127037500Y-96400000D03*
%TO.N,Net-(Q4-Pad3)*%
X127037500Y-94600000D03*
%TO.N,Net-(Q5-Pad2)*%
X146462500Y-86850000D03*
%TO.N,Net-(Q5-Pad3)*%
X144825000Y-96150000D03*
%TO.N,Net-(Q6-Pad3)*%
X144825000Y-94400000D03*
%TD*%
D19*
%TO.N,Net-(C1-Pad1)*%
X120900000Y-98700000D02*
X120900000Y-90500000D01*
X115600000Y-104000000D02*
X120900000Y-98700000D01*
%TO.N,GND*%
X130887500Y-87050000D02*
X130887500Y-88902500D01*
X149350000Y-87137500D02*
X149387500Y-87100000D01*
X149350000Y-89190000D02*
X150284511Y-90124511D01*
X119775489Y-90024511D02*
X120900000Y-88900000D01*
X108800000Y-89040000D02*
X109734511Y-89974511D01*
X127650000Y-90250000D02*
X126550000Y-89150000D01*
X112850000Y-89090000D02*
X113784511Y-90024511D01*
X138890000Y-89140000D02*
X138750000Y-89000000D01*
X115175020Y-128424980D02*
X115175020Y-125600000D01*
X129450000Y-128900000D02*
X115700000Y-128900000D01*
X130800000Y-88990000D02*
X131734511Y-89924511D01*
X115700000Y-128900000D02*
X115600000Y-128900000D01*
X126550000Y-88940000D02*
X120940000Y-88940000D01*
X144600000Y-89140000D02*
X145534511Y-90074511D01*
X133450000Y-128550000D02*
X155650000Y-128550000D01*
X113784511Y-90024511D02*
X119775489Y-90024511D01*
X115600000Y-128900000D02*
X115150000Y-128450000D01*
X155650000Y-128550000D02*
X156350000Y-127850000D01*
X130800000Y-89050000D02*
X129600000Y-90250000D01*
X115175020Y-125600000D02*
X115175020Y-125474980D01*
X148465489Y-90074511D02*
X149350000Y-89190000D01*
X115175020Y-125474980D02*
X116350000Y-124300000D01*
X150284511Y-90124511D02*
X156025489Y-90124511D01*
X130350000Y-127200000D02*
X130350000Y-128000000D01*
X155700000Y-121950000D02*
X153350000Y-121950000D01*
X126550000Y-89150000D02*
X126550000Y-88940000D01*
X130350000Y-128000000D02*
X129450000Y-128900000D01*
X129600000Y-90250000D02*
X127650000Y-90250000D01*
X145534511Y-90074511D02*
X148465489Y-90074511D01*
X156025489Y-90124511D02*
X156650000Y-89500000D01*
X156350000Y-122600000D02*
X155700000Y-121950000D01*
X144600000Y-89140000D02*
X138890000Y-89140000D01*
X131900000Y-127000000D02*
X130550000Y-127000000D01*
X130800000Y-88990000D02*
X130800000Y-89050000D01*
X130900000Y-87037500D02*
X130887500Y-87050000D01*
X115150000Y-128450000D02*
X115175020Y-128424980D01*
X130887500Y-88902500D02*
X130800000Y-88990000D01*
X137825489Y-89924511D02*
X138750000Y-89000000D01*
X111965489Y-89974511D02*
X112850000Y-89090000D01*
X109734511Y-89974511D02*
X111965489Y-89974511D01*
X131900000Y-127000000D02*
X133450000Y-128550000D01*
X156350000Y-127850000D02*
X156350000Y-122600000D01*
X112837500Y-89077500D02*
X112850000Y-89090000D01*
X112837500Y-87050000D02*
X112837500Y-89077500D01*
X131734511Y-89924511D02*
X137825489Y-89924511D01*
X130550000Y-127000000D02*
X130350000Y-127200000D01*
X120940000Y-88940000D02*
X120900000Y-88900000D01*
X149350000Y-89190000D02*
X149350000Y-87137500D01*
%TO.N,+3V3*%
X141700000Y-98450000D02*
X142825969Y-97324031D01*
X141700000Y-109500000D02*
X141700000Y-98450000D01*
X130350000Y-112000000D02*
X131350000Y-111000000D01*
X140200000Y-111000000D02*
X142100000Y-112900000D01*
X142100000Y-112900000D02*
X142100000Y-118650000D01*
X142100000Y-118650000D02*
X140600000Y-120150000D01*
X131350000Y-111000000D02*
X140200000Y-111000000D01*
X140200000Y-111000000D02*
X141700000Y-109500000D01*
X142825969Y-97324031D02*
X146875969Y-97324031D01*
X146875969Y-97324031D02*
X149775000Y-94425000D01*
%TO.N,Net-(C3-Pad1)*%
X132500000Y-103950000D02*
X138650000Y-97800000D01*
X138650000Y-97800000D02*
X138650000Y-90700000D01*
X138650000Y-90700000D02*
X138750000Y-90600000D01*
%TO.N,Net-(C5-Pad1)*%
X156650000Y-97200000D02*
X156650000Y-91100000D01*
X149850000Y-104000000D02*
X156650000Y-97200000D01*
%TO.N,Touch 1*%
X122350000Y-122200000D02*
X115175020Y-115025020D01*
X108500000Y-97200000D02*
X108875489Y-96824511D01*
X115101784Y-111354980D02*
X108950000Y-111354980D01*
X108950000Y-111354980D02*
X108500000Y-110904980D01*
X108500000Y-110904980D02*
X108500000Y-97200000D01*
X115175020Y-115025020D02*
X115175020Y-111428216D01*
X122350000Y-127200000D02*
X122350000Y-122200000D01*
X114287989Y-96824511D02*
X116887500Y-94225000D01*
X115175020Y-111428216D02*
X115101784Y-111354980D01*
X108875489Y-96824511D02*
X114287989Y-96824511D01*
%TO.N,Touch 2*%
X124750000Y-98000000D02*
X125625489Y-97124511D01*
X124750000Y-100050000D02*
X124750000Y-98000000D01*
X117900000Y-119650000D02*
X120350000Y-122100000D01*
X132575489Y-97124511D02*
X135050000Y-94650000D01*
X125625489Y-97124511D02*
X132575489Y-97124511D01*
X120350000Y-122100000D02*
X120350000Y-127200000D01*
%TO.N,Touch 3*%
X125525489Y-110425489D02*
X140024511Y-110425489D01*
X149150000Y-93300000D02*
X151875000Y-93300000D01*
X142575489Y-96874511D02*
X145575489Y-96874511D01*
X145575489Y-96874511D02*
X149150000Y-93300000D01*
X124350000Y-112000000D02*
X124350000Y-111250000D01*
X141150000Y-98300000D02*
X142575489Y-96874511D01*
X124350000Y-111600978D02*
X125525489Y-110425489D01*
X124350000Y-112000000D02*
X124350000Y-111600978D01*
X140024511Y-110425489D02*
X141150000Y-109300000D01*
X151875000Y-93300000D02*
X153000000Y-94425000D01*
X141150000Y-109300000D02*
X141150000Y-98300000D01*
%TO.N,Relay 2*%
X128350000Y-114450000D02*
X128350000Y-112000000D01*
X128300000Y-114500000D02*
X128350000Y-114450000D01*
%TO.N,Relay 1*%
X128450000Y-124600000D02*
X128350000Y-124700000D01*
X128350000Y-124700000D02*
X128350000Y-127200000D01*
%TO.N,Relay 3*%
X128850000Y-115600000D02*
X127700000Y-115600000D01*
X133054594Y-113650000D02*
X130800000Y-113650000D01*
X136600000Y-117195406D02*
X133054594Y-113650000D01*
X127700000Y-115600000D02*
X126350000Y-114250000D01*
X130800000Y-113650000D02*
X128850000Y-115600000D01*
X136600000Y-118150000D02*
X136600000Y-117195406D01*
X126350000Y-114250000D02*
X126350000Y-112000000D01*
%TO.N,RST*%
X151750000Y-127550000D02*
X134100000Y-127550000D01*
X119900000Y-117950000D02*
X116350000Y-114400000D01*
X124325000Y-117950000D02*
X119900000Y-117950000D01*
X134100000Y-127550000D02*
X132100000Y-125550000D01*
X153350000Y-125950000D02*
X151750000Y-127550000D01*
X116350000Y-112000000D02*
X116350000Y-114400000D01*
X130750978Y-125550000D02*
X124325000Y-119124022D01*
X132100000Y-125550000D02*
X130750978Y-125550000D01*
X124325000Y-119124022D02*
X124325000Y-117950000D01*
%TO.N,BLUELED*%
X149325000Y-85250000D02*
X149325000Y-84725000D01*
X151100000Y-82950000D02*
X155600000Y-82950000D01*
X149000000Y-119500000D02*
X149000000Y-121600000D01*
X157374511Y-84724511D02*
X157374511Y-111125489D01*
X132712500Y-85212500D02*
X132725000Y-85200000D01*
X124350000Y-126450000D02*
X124350000Y-127200000D01*
X157374511Y-111125489D02*
X149000000Y-119500000D01*
X149325000Y-85250000D02*
X132775000Y-85250000D01*
X132725000Y-85200000D02*
X131925480Y-84400480D01*
X132775000Y-85250000D02*
X132725000Y-85200000D01*
X149325000Y-84725000D02*
X151100000Y-82950000D01*
X151350000Y-123950000D02*
X149000000Y-121600000D01*
X115562020Y-84400480D02*
X114662500Y-85300000D01*
X131925480Y-84400480D02*
X115562020Y-84400480D01*
X155600000Y-82950000D02*
X157374511Y-84724511D01*
%TO.N,Net-(Q1-Pad2)*%
X110700000Y-89040000D02*
X110700000Y-87062500D01*
X110700000Y-87062500D02*
X110712500Y-87050000D01*
%TO.N,Net-(Q1-Pad3)*%
X108150000Y-95012500D02*
X109237500Y-96100000D01*
X108150000Y-93450000D02*
X108150000Y-95012500D01*
X109750000Y-91850000D02*
X108150000Y-93450000D01*
X109750000Y-91660000D02*
X109750000Y-91850000D01*
%TO.N,Net-(Q2-Pad2)*%
X114662500Y-87050000D02*
X114587500Y-87050000D01*
X114750000Y-87137500D02*
X114662500Y-87050000D01*
X114750000Y-89090000D02*
X114750000Y-87137500D01*
X114587500Y-87050000D02*
X112837500Y-85300000D01*
%TO.N,Net-(Q2-Pad3)*%
X111715000Y-91710000D02*
X109225000Y-94200000D01*
X113800000Y-91710000D02*
X111715000Y-91710000D01*
%TO.N,Net-(Q3-Pad2)*%
X128450000Y-86912500D02*
X128512500Y-86850000D01*
X128450000Y-88940000D02*
X128450000Y-86912500D01*
%TO.N,Net-(Q3-Pad3)*%
X127140000Y-91560000D02*
X126050000Y-92650000D01*
X126050000Y-95412500D02*
X127037500Y-96400000D01*
X126050000Y-92650000D02*
X126050000Y-95412500D01*
X127500000Y-91560000D02*
X127140000Y-91560000D01*
%TO.N,Net-(Q4-Pad2)*%
X132712500Y-87050000D02*
X132712500Y-87012500D01*
X132700000Y-88990000D02*
X132700000Y-87062500D01*
X132712500Y-87012500D02*
X130900000Y-85200000D01*
X132712500Y-87050000D02*
X132712500Y-87077500D01*
X132700000Y-87062500D02*
X132712500Y-87050000D01*
%TO.N,Net-(Q4-Pad3)*%
X130027500Y-91610000D02*
X127037500Y-94600000D01*
X131750000Y-91610000D02*
X130027500Y-91610000D01*
%TO.N,Net-(Q5-Pad2)*%
X146500000Y-86887500D02*
X146462500Y-86850000D01*
X146500000Y-89140000D02*
X146500000Y-86887500D01*
%TO.N,Net-(Q5-Pad3)*%
X145240000Y-91760000D02*
X143750000Y-93250000D01*
X143750000Y-95075000D02*
X144825000Y-96150000D01*
X145550000Y-91760000D02*
X145240000Y-91760000D01*
X143750000Y-93250000D02*
X143750000Y-95075000D01*
%TO.N,Net-(Q6-Pad2)*%
X151212500Y-85312500D02*
X151150000Y-85250000D01*
X151250000Y-87137500D02*
X151212500Y-87100000D01*
X151212500Y-87100000D02*
X151212500Y-85312500D01*
X151250000Y-89190000D02*
X151250000Y-87137500D01*
%TO.N,Net-(Q6-Pad3)*%
X147415000Y-91810000D02*
X144825000Y-94400000D01*
X150300000Y-91810000D02*
X147415000Y-91810000D01*
%TD*%
M02*
