%TF.GenerationSoftware,KiCad,Pcbnew,(6.0.1-0)*%
%TF.CreationDate,2022-03-13T12:33:57+03:30*%
%TF.ProjectId,touch_panel,746f7563-685f-4706-916e-656c2e6b6963,rev?*%
%TF.SameCoordinates,Original*%
%TF.FileFunction,Legend,Bot*%
%TF.FilePolarity,Positive*%
%FSLAX46Y46*%
G04 Gerber Fmt 4.6, Leading zero omitted, Abs format (unit mm)*
G04 Created by KiCad (PCBNEW (6.0.1-0)) date 2022-03-13 12:33:57*
%MOMM*%
%LPD*%
G01*
G04 APERTURE LIST*
%ADD10C,0.150000*%
%ADD11C,0.120000*%
G04 APERTURE END LIST*
D10*
%TO.C,R15*%
X147642857Y-85652380D02*
X147976190Y-85176190D01*
X148214285Y-85652380D02*
X148214285Y-84652380D01*
X147833333Y-84652380D01*
X147738095Y-84700000D01*
X147690476Y-84747619D01*
X147642857Y-84842857D01*
X147642857Y-84985714D01*
X147690476Y-85080952D01*
X147738095Y-85128571D01*
X147833333Y-85176190D01*
X148214285Y-85176190D01*
X146690476Y-85652380D02*
X147261904Y-85652380D01*
X146976190Y-85652380D02*
X146976190Y-84652380D01*
X147071428Y-84795238D01*
X147166666Y-84890476D01*
X147261904Y-84938095D01*
X145785714Y-84652380D02*
X146261904Y-84652380D01*
X146309523Y-85128571D01*
X146261904Y-85080952D01*
X146166666Y-85033333D01*
X145928571Y-85033333D01*
X145833333Y-85080952D01*
X145785714Y-85128571D01*
X145738095Y-85223809D01*
X145738095Y-85461904D01*
X145785714Y-85557142D01*
X145833333Y-85604761D01*
X145928571Y-85652380D01*
X146166666Y-85652380D01*
X146261904Y-85604761D01*
X146309523Y-85557142D01*
%TO.C,Q6*%
X150897619Y-93854761D02*
X150850000Y-93759523D01*
X150754761Y-93664285D01*
X150611904Y-93521428D01*
X150564285Y-93426190D01*
X150564285Y-93330952D01*
X150802380Y-93378571D02*
X150754761Y-93283333D01*
X150659523Y-93188095D01*
X150469047Y-93140476D01*
X150135714Y-93140476D01*
X149945238Y-93188095D01*
X149850000Y-93283333D01*
X149802380Y-93378571D01*
X149802380Y-93569047D01*
X149850000Y-93664285D01*
X149945238Y-93759523D01*
X150135714Y-93807142D01*
X150469047Y-93807142D01*
X150659523Y-93759523D01*
X150754761Y-93664285D01*
X150802380Y-93569047D01*
X150802380Y-93378571D01*
X149802380Y-94664285D02*
X149802380Y-94473809D01*
X149850000Y-94378571D01*
X149897619Y-94330952D01*
X150040476Y-94235714D01*
X150230952Y-94188095D01*
X150611904Y-94188095D01*
X150707142Y-94235714D01*
X150754761Y-94283333D01*
X150802380Y-94378571D01*
X150802380Y-94569047D01*
X150754761Y-94664285D01*
X150707142Y-94711904D01*
X150611904Y-94759523D01*
X150373809Y-94759523D01*
X150278571Y-94711904D01*
X150230952Y-94664285D01*
X150183333Y-94569047D01*
X150183333Y-94378571D01*
X150230952Y-94283333D01*
X150278571Y-94235714D01*
X150373809Y-94188095D01*
%TO.C,Q1*%
X110347619Y-93704761D02*
X110300000Y-93609523D01*
X110204761Y-93514285D01*
X110061904Y-93371428D01*
X110014285Y-93276190D01*
X110014285Y-93180952D01*
X110252380Y-93228571D02*
X110204761Y-93133333D01*
X110109523Y-93038095D01*
X109919047Y-92990476D01*
X109585714Y-92990476D01*
X109395238Y-93038095D01*
X109300000Y-93133333D01*
X109252380Y-93228571D01*
X109252380Y-93419047D01*
X109300000Y-93514285D01*
X109395238Y-93609523D01*
X109585714Y-93657142D01*
X109919047Y-93657142D01*
X110109523Y-93609523D01*
X110204761Y-93514285D01*
X110252380Y-93419047D01*
X110252380Y-93228571D01*
X110252380Y-94609523D02*
X110252380Y-94038095D01*
X110252380Y-94323809D02*
X109252380Y-94323809D01*
X109395238Y-94228571D01*
X109490476Y-94133333D01*
X109538095Y-94038095D01*
%TO.C,R3*%
X116666666Y-85752380D02*
X117000000Y-85276190D01*
X117238095Y-85752380D02*
X117238095Y-84752380D01*
X116857142Y-84752380D01*
X116761904Y-84800000D01*
X116714285Y-84847619D01*
X116666666Y-84942857D01*
X116666666Y-85085714D01*
X116714285Y-85180952D01*
X116761904Y-85228571D01*
X116857142Y-85276190D01*
X117238095Y-85276190D01*
X116333333Y-84752380D02*
X115714285Y-84752380D01*
X116047619Y-85133333D01*
X115904761Y-85133333D01*
X115809523Y-85180952D01*
X115761904Y-85228571D01*
X115714285Y-85323809D01*
X115714285Y-85561904D01*
X115761904Y-85657142D01*
X115809523Y-85704761D01*
X115904761Y-85752380D01*
X116190476Y-85752380D01*
X116285714Y-85704761D01*
X116333333Y-85657142D01*
%TO.C,Q3*%
X128097619Y-93604761D02*
X128050000Y-93509523D01*
X127954761Y-93414285D01*
X127811904Y-93271428D01*
X127764285Y-93176190D01*
X127764285Y-93080952D01*
X128002380Y-93128571D02*
X127954761Y-93033333D01*
X127859523Y-92938095D01*
X127669047Y-92890476D01*
X127335714Y-92890476D01*
X127145238Y-92938095D01*
X127050000Y-93033333D01*
X127002380Y-93128571D01*
X127002380Y-93319047D01*
X127050000Y-93414285D01*
X127145238Y-93509523D01*
X127335714Y-93557142D01*
X127669047Y-93557142D01*
X127859523Y-93509523D01*
X127954761Y-93414285D01*
X128002380Y-93319047D01*
X128002380Y-93128571D01*
X127002380Y-93890476D02*
X127002380Y-94509523D01*
X127383333Y-94176190D01*
X127383333Y-94319047D01*
X127430952Y-94414285D01*
X127478571Y-94461904D01*
X127573809Y-94509523D01*
X127811904Y-94509523D01*
X127907142Y-94461904D01*
X127954761Y-94414285D01*
X128002380Y-94319047D01*
X128002380Y-94033333D01*
X127954761Y-93938095D01*
X127907142Y-93890476D01*
%TO.C,R10*%
X135642857Y-87502380D02*
X135976190Y-87026190D01*
X136214285Y-87502380D02*
X136214285Y-86502380D01*
X135833333Y-86502380D01*
X135738095Y-86550000D01*
X135690476Y-86597619D01*
X135642857Y-86692857D01*
X135642857Y-86835714D01*
X135690476Y-86930952D01*
X135738095Y-86978571D01*
X135833333Y-87026190D01*
X136214285Y-87026190D01*
X134690476Y-87502380D02*
X135261904Y-87502380D01*
X134976190Y-87502380D02*
X134976190Y-86502380D01*
X135071428Y-86645238D01*
X135166666Y-86740476D01*
X135261904Y-86788095D01*
X134071428Y-86502380D02*
X133976190Y-86502380D01*
X133880952Y-86550000D01*
X133833333Y-86597619D01*
X133785714Y-86692857D01*
X133738095Y-86883333D01*
X133738095Y-87121428D01*
X133785714Y-87311904D01*
X133833333Y-87407142D01*
X133880952Y-87454761D01*
X133976190Y-87502380D01*
X134071428Y-87502380D01*
X134166666Y-87454761D01*
X134214285Y-87407142D01*
X134261904Y-87311904D01*
X134309523Y-87121428D01*
X134309523Y-86883333D01*
X134261904Y-86692857D01*
X134214285Y-86597619D01*
X134166666Y-86550000D01*
X134071428Y-86502380D01*
%TO.C,Q4*%
X132347619Y-93604761D02*
X132300000Y-93509523D01*
X132204761Y-93414285D01*
X132061904Y-93271428D01*
X132014285Y-93176190D01*
X132014285Y-93080952D01*
X132252380Y-93128571D02*
X132204761Y-93033333D01*
X132109523Y-92938095D01*
X131919047Y-92890476D01*
X131585714Y-92890476D01*
X131395238Y-92938095D01*
X131300000Y-93033333D01*
X131252380Y-93128571D01*
X131252380Y-93319047D01*
X131300000Y-93414285D01*
X131395238Y-93509523D01*
X131585714Y-93557142D01*
X131919047Y-93557142D01*
X132109523Y-93509523D01*
X132204761Y-93414285D01*
X132252380Y-93319047D01*
X132252380Y-93128571D01*
X131585714Y-94414285D02*
X132252380Y-94414285D01*
X131204761Y-94176190D02*
X131919047Y-93938095D01*
X131919047Y-94557142D01*
%TO.C,Q2*%
X114347619Y-93604761D02*
X114300000Y-93509523D01*
X114204761Y-93414285D01*
X114061904Y-93271428D01*
X114014285Y-93176190D01*
X114014285Y-93080952D01*
X114252380Y-93128571D02*
X114204761Y-93033333D01*
X114109523Y-92938095D01*
X113919047Y-92890476D01*
X113585714Y-92890476D01*
X113395238Y-92938095D01*
X113300000Y-93033333D01*
X113252380Y-93128571D01*
X113252380Y-93319047D01*
X113300000Y-93414285D01*
X113395238Y-93509523D01*
X113585714Y-93557142D01*
X113919047Y-93557142D01*
X114109523Y-93509523D01*
X114204761Y-93414285D01*
X114252380Y-93319047D01*
X114252380Y-93128571D01*
X113347619Y-93938095D02*
X113300000Y-93985714D01*
X113252380Y-94080952D01*
X113252380Y-94319047D01*
X113300000Y-94414285D01*
X113347619Y-94461904D01*
X113442857Y-94509523D01*
X113538095Y-94509523D01*
X113680952Y-94461904D01*
X114252380Y-93890476D01*
X114252380Y-94509523D01*
%TO.C,U4*%
X114042380Y-108278095D02*
X114851904Y-108278095D01*
X114947142Y-108325714D01*
X114994761Y-108373333D01*
X115042380Y-108468571D01*
X115042380Y-108659047D01*
X114994761Y-108754285D01*
X114947142Y-108801904D01*
X114851904Y-108849523D01*
X114042380Y-108849523D01*
X114375714Y-109754285D02*
X115042380Y-109754285D01*
X113994761Y-109516190D02*
X114709047Y-109278095D01*
X114709047Y-109897142D01*
%TO.C,R4*%
X116566666Y-87502380D02*
X116900000Y-87026190D01*
X117138095Y-87502380D02*
X117138095Y-86502380D01*
X116757142Y-86502380D01*
X116661904Y-86550000D01*
X116614285Y-86597619D01*
X116566666Y-86692857D01*
X116566666Y-86835714D01*
X116614285Y-86930952D01*
X116661904Y-86978571D01*
X116757142Y-87026190D01*
X117138095Y-87026190D01*
X115709523Y-86835714D02*
X115709523Y-87502380D01*
X115947619Y-86454761D02*
X116185714Y-87169047D01*
X115566666Y-87169047D01*
%TO.C,J1*%
X142112380Y-118816666D02*
X142826666Y-118816666D01*
X142969523Y-118769047D01*
X143064761Y-118673809D01*
X143112380Y-118530952D01*
X143112380Y-118435714D01*
X143112380Y-119816666D02*
X143112380Y-119245238D01*
X143112380Y-119530952D02*
X142112380Y-119530952D01*
X142255238Y-119435714D01*
X142350476Y-119340476D01*
X142398095Y-119245238D01*
%TO.C,R16*%
X147642857Y-87752380D02*
X147976190Y-87276190D01*
X148214285Y-87752380D02*
X148214285Y-86752380D01*
X147833333Y-86752380D01*
X147738095Y-86800000D01*
X147690476Y-86847619D01*
X147642857Y-86942857D01*
X147642857Y-87085714D01*
X147690476Y-87180952D01*
X147738095Y-87228571D01*
X147833333Y-87276190D01*
X148214285Y-87276190D01*
X146690476Y-87752380D02*
X147261904Y-87752380D01*
X146976190Y-87752380D02*
X146976190Y-86752380D01*
X147071428Y-86895238D01*
X147166666Y-86990476D01*
X147261904Y-87038095D01*
X145833333Y-86752380D02*
X146023809Y-86752380D01*
X146119047Y-86800000D01*
X146166666Y-86847619D01*
X146261904Y-86990476D01*
X146309523Y-87180952D01*
X146309523Y-87561904D01*
X146261904Y-87657142D01*
X146214285Y-87704761D01*
X146119047Y-87752380D01*
X145928571Y-87752380D01*
X145833333Y-87704761D01*
X145785714Y-87657142D01*
X145738095Y-87561904D01*
X145738095Y-87323809D01*
X145785714Y-87228571D01*
X145833333Y-87180952D01*
X145928571Y-87133333D01*
X146119047Y-87133333D01*
X146214285Y-87180952D01*
X146261904Y-87228571D01*
X146309523Y-87323809D01*
%TO.C,R9*%
X134816666Y-85702380D02*
X135150000Y-85226190D01*
X135388095Y-85702380D02*
X135388095Y-84702380D01*
X135007142Y-84702380D01*
X134911904Y-84750000D01*
X134864285Y-84797619D01*
X134816666Y-84892857D01*
X134816666Y-85035714D01*
X134864285Y-85130952D01*
X134911904Y-85178571D01*
X135007142Y-85226190D01*
X135388095Y-85226190D01*
X134340476Y-85702380D02*
X134150000Y-85702380D01*
X134054761Y-85654761D01*
X134007142Y-85607142D01*
X133911904Y-85464285D01*
X133864285Y-85273809D01*
X133864285Y-84892857D01*
X133911904Y-84797619D01*
X133959523Y-84750000D01*
X134054761Y-84702380D01*
X134245238Y-84702380D01*
X134340476Y-84750000D01*
X134388095Y-84797619D01*
X134435714Y-84892857D01*
X134435714Y-85130952D01*
X134388095Y-85226190D01*
X134340476Y-85273809D01*
X134245238Y-85321428D01*
X134054761Y-85321428D01*
X133959523Y-85273809D01*
X133911904Y-85226190D01*
X133864285Y-85130952D01*
%TO.C,Q5*%
X146147619Y-93904761D02*
X146100000Y-93809523D01*
X146004761Y-93714285D01*
X145861904Y-93571428D01*
X145814285Y-93476190D01*
X145814285Y-93380952D01*
X146052380Y-93428571D02*
X146004761Y-93333333D01*
X145909523Y-93238095D01*
X145719047Y-93190476D01*
X145385714Y-93190476D01*
X145195238Y-93238095D01*
X145100000Y-93333333D01*
X145052380Y-93428571D01*
X145052380Y-93619047D01*
X145100000Y-93714285D01*
X145195238Y-93809523D01*
X145385714Y-93857142D01*
X145719047Y-93857142D01*
X145909523Y-93809523D01*
X146004761Y-93714285D01*
X146052380Y-93619047D01*
X146052380Y-93428571D01*
X145052380Y-94761904D02*
X145052380Y-94285714D01*
X145528571Y-94238095D01*
X145480952Y-94285714D01*
X145433333Y-94380952D01*
X145433333Y-94619047D01*
X145480952Y-94714285D01*
X145528571Y-94761904D01*
X145623809Y-94809523D01*
X145861904Y-94809523D01*
X145957142Y-94761904D01*
X146004761Y-94714285D01*
X146052380Y-94619047D01*
X146052380Y-94380952D01*
X146004761Y-94285714D01*
X145957142Y-94238095D01*
D11*
%TO.C,R15*%
X149982776Y-84727500D02*
X150492224Y-84727500D01*
X149982776Y-85772500D02*
X150492224Y-85772500D01*
%TO.C,Q6*%
X151850000Y-91450000D02*
X151850000Y-89600000D01*
X148800000Y-91450000D02*
X149800000Y-91450000D01*
X148790000Y-91430000D02*
X148790000Y-89000000D01*
X150800000Y-91450000D02*
X151850000Y-91450000D01*
%TO.C,Q1*%
X108240000Y-91280000D02*
X108240000Y-88850000D01*
X110250000Y-91300000D02*
X111300000Y-91300000D01*
X111300000Y-91300000D02*
X111300000Y-89450000D01*
X108250000Y-91300000D02*
X109250000Y-91300000D01*
%TO.C,R3*%
X114004724Y-85822500D02*
X113495276Y-85822500D01*
X114004724Y-84777500D02*
X113495276Y-84777500D01*
%TO.C,Q3*%
X129050000Y-91200000D02*
X129050000Y-89350000D01*
X128000000Y-91200000D02*
X129050000Y-91200000D01*
X126000000Y-91200000D02*
X127000000Y-91200000D01*
X125990000Y-91180000D02*
X125990000Y-88750000D01*
%TO.C,R10*%
X131545276Y-86527500D02*
X132054724Y-86527500D01*
X131545276Y-87572500D02*
X132054724Y-87572500D01*
%TO.C,Q4*%
X132250000Y-91250000D02*
X133300000Y-91250000D01*
X133300000Y-91250000D02*
X133300000Y-89400000D01*
X130250000Y-91250000D02*
X131250000Y-91250000D01*
X130240000Y-91230000D02*
X130240000Y-88800000D01*
%TO.C,Q2*%
X112300000Y-91350000D02*
X113300000Y-91350000D01*
X114300000Y-91350000D02*
X115350000Y-91350000D01*
X112290000Y-91330000D02*
X112290000Y-88900000D01*
X115350000Y-91350000D02*
X115350000Y-89500000D01*
%TO.C,U4*%
X107730000Y-111480000D02*
X107730000Y-127720000D01*
X131350000Y-127720000D02*
X131970000Y-127720000D01*
X131970000Y-127720000D02*
X131970000Y-125600000D01*
X107730000Y-127720000D02*
X115350000Y-127720000D01*
X131970000Y-113600000D02*
X131970000Y-111480000D01*
X131970000Y-111480000D02*
X131350000Y-111480000D01*
X115350000Y-111480000D02*
X107730000Y-111480000D01*
X115350000Y-111480000D02*
X115350000Y-110870000D01*
%TO.C,R4*%
X113495276Y-86527500D02*
X114004724Y-86527500D01*
X113495276Y-87572500D02*
X114004724Y-87572500D01*
%TO.C,J1*%
X133540000Y-121210000D02*
X133540000Y-117090000D01*
X141660000Y-117090000D02*
X133540000Y-117090000D01*
X140600000Y-121210000D02*
X141660000Y-121210000D01*
X139600000Y-121210000D02*
X133540000Y-121210000D01*
X139600000Y-119150000D02*
X141660000Y-119150000D01*
X141660000Y-121210000D02*
X141660000Y-120150000D01*
X139600000Y-121210000D02*
X139600000Y-119150000D01*
X141660000Y-119150000D02*
X141660000Y-117090000D01*
%TO.C,R16*%
X150045276Y-87622500D02*
X150554724Y-87622500D01*
X150045276Y-86577500D02*
X150554724Y-86577500D01*
%TO.C,R9*%
X132067224Y-85722500D02*
X131557776Y-85722500D01*
X132067224Y-84677500D02*
X131557776Y-84677500D01*
%TO.C,Q5*%
X144050000Y-91400000D02*
X145050000Y-91400000D01*
X146050000Y-91400000D02*
X147100000Y-91400000D01*
X147100000Y-91400000D02*
X147100000Y-89550000D01*
X144040000Y-91380000D02*
X144040000Y-88950000D01*
%TD*%
M02*
