M48
; DRILL file {KiCad 6.0.2-378541a8eb~116~ubuntu20.04.1} date Sun 13 Mar 2022 21:59:54 +0330
; FORMAT={-:-/ absolute / metric / decimal}
; #@! TF.CreationDate,2022-03-13T21:59:54+03:30
; #@! TF.GenerationSoftware,Kicad,Pcbnew,6.0.2-378541a8eb~116~ubuntu20.04.1
; #@! TF.FileFunction,Plated,1,2,PTH
FMAT,2
METRIC
; #@! TA.AperFunction,Plated,PTH,ViaDrill
T1C0.400
; #@! TA.AperFunction,Plated,PTH,ComponentDrill
T2C0.500
; #@! TA.AperFunction,Plated,PTH,ComponentDrill
T3C0.800
%
G90
G05
T1
X108.946Y-92.631
X110.712Y-87.05
X112.587Y-92.6
X116.35Y-114.4
X116.35Y-124.3
X116.35Y-127.2
X117.0Y-92.5
X117.9Y-119.65
X118.35Y-112.0
X118.35Y-127.2
X120.9Y-88.9
X120.9Y-90.5
X124.0Y-96.0
X124.325Y-117.95
X124.35Y-124.8
X126.587Y-92.5
X128.3Y-114.5
X128.4Y-124.6
X128.512Y-86.85
X130.088Y-92.5
X135.5Y-93.0
X138.75Y-89.0
X138.75Y-90.6
X144.588Y-92.5
X146.463Y-86.85
X148.088Y-92.534
X151.524Y-92.7
X151.725Y-94.5
X155.4Y-89.0
X155.4Y-90.6
T2
X116.0Y-103.0
X132.2Y-103.0
X149.1Y-103.0
T3
X134.6Y-118.15
X134.6Y-120.15
X136.6Y-118.15
X136.6Y-120.15
X138.6Y-118.15
X138.6Y-120.15
X140.6Y-118.15
X140.6Y-120.15
X151.35Y-119.95
X151.35Y-121.95
X151.35Y-123.95
X151.35Y-125.95
X153.35Y-119.95
X153.35Y-121.95
X153.35Y-123.95
X153.35Y-125.95
T0
M30
