%TF.GenerationSoftware,KiCad,Pcbnew,6.0.2-378541a8eb~116~ubuntu20.04.1*%
%TF.CreationDate,2022-03-13T21:59:14+03:30*%
%TF.ProjectId,touch_panel,746f7563-685f-4706-916e-656c2e6b6963,rev?*%
%TF.SameCoordinates,Original*%
%TF.FileFunction,Legend,Bot*%
%TF.FilePolarity,Positive*%
%FSLAX46Y46*%
G04 Gerber Fmt 4.6, Leading zero omitted, Abs format (unit mm)*
G04 Created by KiCad (PCBNEW 6.0.2-378541a8eb~116~ubuntu20.04.1) date 2022-03-13 21:59:14*
%MOMM*%
%LPD*%
G01*
G04 APERTURE LIST*
%ADD10C,0.100000*%
%ADD11C,0.150000*%
%ADD12C,0.300000*%
%ADD13C,0.400000*%
%TA.AperFunction,Profile*%
%ADD14C,0.100000*%
%TD*%
%ADD15C,0.120000*%
G04 APERTURE END LIST*
D10*
D11*
X177002200Y-166007200D02*
X177002200Y-198007200D01*
X285002200Y-198007200D01*
X285002200Y-166007200D01*
X177002200Y-166007200D01*
D10*
D11*
X10000000Y-10000000D02*
X10000000Y-200007200D01*
X287002200Y-200007200D01*
X287002200Y-10000000D01*
X10000000Y-10000000D01*
D10*
D11*
X12000000Y-12000000D02*
X12000000Y-198007200D01*
X285002200Y-198007200D01*
X285002200Y-12000000D01*
X12000000Y-12000000D01*
D10*
D11*
X60000000Y-12000000D02*
X60000000Y-10000000D01*
D10*
D11*
X110000000Y-12000000D02*
X110000000Y-10000000D01*
D10*
D11*
X160000000Y-12000000D02*
X160000000Y-10000000D01*
D10*
D11*
X210000000Y-12000000D02*
X210000000Y-10000000D01*
D10*
D11*
X260000000Y-12000000D02*
X260000000Y-10000000D01*
D10*
D11*
X36065476Y-11588095D02*
X35322619Y-11588095D01*
X35694047Y-11588095D02*
X35694047Y-10288095D01*
X35570238Y-10473809D01*
X35446428Y-10597619D01*
X35322619Y-10659523D01*
D10*
D11*
X85322619Y-10411904D02*
X85384523Y-10350000D01*
X85508333Y-10288095D01*
X85817857Y-10288095D01*
X85941666Y-10350000D01*
X86003571Y-10411904D01*
X86065476Y-10535714D01*
X86065476Y-10659523D01*
X86003571Y-10845238D01*
X85260714Y-11588095D01*
X86065476Y-11588095D01*
D10*
D11*
X135260714Y-10288095D02*
X136065476Y-10288095D01*
X135632142Y-10783333D01*
X135817857Y-10783333D01*
X135941666Y-10845238D01*
X136003571Y-10907142D01*
X136065476Y-11030952D01*
X136065476Y-11340476D01*
X136003571Y-11464285D01*
X135941666Y-11526190D01*
X135817857Y-11588095D01*
X135446428Y-11588095D01*
X135322619Y-11526190D01*
X135260714Y-11464285D01*
D10*
D11*
X185941666Y-10721428D02*
X185941666Y-11588095D01*
X185632142Y-10226190D02*
X185322619Y-11154761D01*
X186127380Y-11154761D01*
D10*
D11*
X236003571Y-10288095D02*
X235384523Y-10288095D01*
X235322619Y-10907142D01*
X235384523Y-10845238D01*
X235508333Y-10783333D01*
X235817857Y-10783333D01*
X235941666Y-10845238D01*
X236003571Y-10907142D01*
X236065476Y-11030952D01*
X236065476Y-11340476D01*
X236003571Y-11464285D01*
X235941666Y-11526190D01*
X235817857Y-11588095D01*
X235508333Y-11588095D01*
X235384523Y-11526190D01*
X235322619Y-11464285D01*
D10*
D11*
X285941666Y-10288095D02*
X285694047Y-10288095D01*
X285570238Y-10350000D01*
X285508333Y-10411904D01*
X285384523Y-10597619D01*
X285322619Y-10845238D01*
X285322619Y-11340476D01*
X285384523Y-11464285D01*
X285446428Y-11526190D01*
X285570238Y-11588095D01*
X285817857Y-11588095D01*
X285941666Y-11526190D01*
X286003571Y-11464285D01*
X286065476Y-11340476D01*
X286065476Y-11030952D01*
X286003571Y-10907142D01*
X285941666Y-10845238D01*
X285817857Y-10783333D01*
X285570238Y-10783333D01*
X285446428Y-10845238D01*
X285384523Y-10907142D01*
X285322619Y-11030952D01*
D10*
D11*
X60000000Y-198007200D02*
X60000000Y-200007200D01*
D10*
D11*
X110000000Y-198007200D02*
X110000000Y-200007200D01*
D10*
D11*
X160000000Y-198007200D02*
X160000000Y-200007200D01*
D10*
D11*
X210000000Y-198007200D02*
X210000000Y-200007200D01*
D10*
D11*
X260000000Y-198007200D02*
X260000000Y-200007200D01*
D10*
D11*
X36065476Y-199595295D02*
X35322619Y-199595295D01*
X35694047Y-199595295D02*
X35694047Y-198295295D01*
X35570238Y-198481009D01*
X35446428Y-198604819D01*
X35322619Y-198666723D01*
D10*
D11*
X85322619Y-198419104D02*
X85384523Y-198357200D01*
X85508333Y-198295295D01*
X85817857Y-198295295D01*
X85941666Y-198357200D01*
X86003571Y-198419104D01*
X86065476Y-198542914D01*
X86065476Y-198666723D01*
X86003571Y-198852438D01*
X85260714Y-199595295D01*
X86065476Y-199595295D01*
D10*
D11*
X135260714Y-198295295D02*
X136065476Y-198295295D01*
X135632142Y-198790533D01*
X135817857Y-198790533D01*
X135941666Y-198852438D01*
X136003571Y-198914342D01*
X136065476Y-199038152D01*
X136065476Y-199347676D01*
X136003571Y-199471485D01*
X135941666Y-199533390D01*
X135817857Y-199595295D01*
X135446428Y-199595295D01*
X135322619Y-199533390D01*
X135260714Y-199471485D01*
D10*
D11*
X185941666Y-198728628D02*
X185941666Y-199595295D01*
X185632142Y-198233390D02*
X185322619Y-199161961D01*
X186127380Y-199161961D01*
D10*
D11*
X236003571Y-198295295D02*
X235384523Y-198295295D01*
X235322619Y-198914342D01*
X235384523Y-198852438D01*
X235508333Y-198790533D01*
X235817857Y-198790533D01*
X235941666Y-198852438D01*
X236003571Y-198914342D01*
X236065476Y-199038152D01*
X236065476Y-199347676D01*
X236003571Y-199471485D01*
X235941666Y-199533390D01*
X235817857Y-199595295D01*
X235508333Y-199595295D01*
X235384523Y-199533390D01*
X235322619Y-199471485D01*
D10*
D11*
X285941666Y-198295295D02*
X285694047Y-198295295D01*
X285570238Y-198357200D01*
X285508333Y-198419104D01*
X285384523Y-198604819D01*
X285322619Y-198852438D01*
X285322619Y-199347676D01*
X285384523Y-199471485D01*
X285446428Y-199533390D01*
X285570238Y-199595295D01*
X285817857Y-199595295D01*
X285941666Y-199533390D01*
X286003571Y-199471485D01*
X286065476Y-199347676D01*
X286065476Y-199038152D01*
X286003571Y-198914342D01*
X285941666Y-198852438D01*
X285817857Y-198790533D01*
X285570238Y-198790533D01*
X285446428Y-198852438D01*
X285384523Y-198914342D01*
X285322619Y-199038152D01*
D10*
D11*
X10000000Y-60000000D02*
X12000000Y-60000000D01*
D10*
D11*
X10000000Y-110000000D02*
X12000000Y-110000000D01*
D10*
D11*
X10000000Y-160000000D02*
X12000000Y-160000000D01*
D10*
D11*
X10690476Y-35216666D02*
X11309523Y-35216666D01*
X10566666Y-35588095D02*
X11000000Y-34288095D01*
X11433333Y-35588095D01*
D10*
D11*
X11092857Y-84907142D02*
X11278571Y-84969047D01*
X11340476Y-85030952D01*
X11402380Y-85154761D01*
X11402380Y-85340476D01*
X11340476Y-85464285D01*
X11278571Y-85526190D01*
X11154761Y-85588095D01*
X10659523Y-85588095D01*
X10659523Y-84288095D01*
X11092857Y-84288095D01*
X11216666Y-84350000D01*
X11278571Y-84411904D01*
X11340476Y-84535714D01*
X11340476Y-84659523D01*
X11278571Y-84783333D01*
X11216666Y-84845238D01*
X11092857Y-84907142D01*
X10659523Y-84907142D01*
D10*
D11*
X11402380Y-135464285D02*
X11340476Y-135526190D01*
X11154761Y-135588095D01*
X11030952Y-135588095D01*
X10845238Y-135526190D01*
X10721428Y-135402380D01*
X10659523Y-135278571D01*
X10597619Y-135030952D01*
X10597619Y-134845238D01*
X10659523Y-134597619D01*
X10721428Y-134473809D01*
X10845238Y-134350000D01*
X11030952Y-134288095D01*
X11154761Y-134288095D01*
X11340476Y-134350000D01*
X11402380Y-134411904D01*
D10*
D11*
X10659523Y-185588095D02*
X10659523Y-184288095D01*
X10969047Y-184288095D01*
X11154761Y-184350000D01*
X11278571Y-184473809D01*
X11340476Y-184597619D01*
X11402380Y-184845238D01*
X11402380Y-185030952D01*
X11340476Y-185278571D01*
X11278571Y-185402380D01*
X11154761Y-185526190D01*
X10969047Y-185588095D01*
X10659523Y-185588095D01*
D10*
D11*
X287002200Y-60000000D02*
X285002200Y-60000000D01*
D10*
D11*
X287002200Y-110000000D02*
X285002200Y-110000000D01*
D10*
D11*
X287002200Y-160000000D02*
X285002200Y-160000000D01*
D10*
D11*
X285692676Y-35216666D02*
X286311723Y-35216666D01*
X285568866Y-35588095D02*
X286002200Y-34288095D01*
X286435533Y-35588095D01*
D10*
D11*
X286095057Y-84907142D02*
X286280771Y-84969047D01*
X286342676Y-85030952D01*
X286404580Y-85154761D01*
X286404580Y-85340476D01*
X286342676Y-85464285D01*
X286280771Y-85526190D01*
X286156961Y-85588095D01*
X285661723Y-85588095D01*
X285661723Y-84288095D01*
X286095057Y-84288095D01*
X286218866Y-84350000D01*
X286280771Y-84411904D01*
X286342676Y-84535714D01*
X286342676Y-84659523D01*
X286280771Y-84783333D01*
X286218866Y-84845238D01*
X286095057Y-84907142D01*
X285661723Y-84907142D01*
D10*
D11*
X286404580Y-135464285D02*
X286342676Y-135526190D01*
X286156961Y-135588095D01*
X286033152Y-135588095D01*
X285847438Y-135526190D01*
X285723628Y-135402380D01*
X285661723Y-135278571D01*
X285599819Y-135030952D01*
X285599819Y-134845238D01*
X285661723Y-134597619D01*
X285723628Y-134473809D01*
X285847438Y-134350000D01*
X286033152Y-134288095D01*
X286156961Y-134288095D01*
X286342676Y-134350000D01*
X286404580Y-134411904D01*
D10*
D11*
X285661723Y-185588095D02*
X285661723Y-184288095D01*
X285971247Y-184288095D01*
X286156961Y-184350000D01*
X286280771Y-184473809D01*
X286342676Y-184597619D01*
X286404580Y-184845238D01*
X286404580Y-185030952D01*
X286342676Y-185278571D01*
X286280771Y-185402380D01*
X286156961Y-185526190D01*
X285971247Y-185588095D01*
X285661723Y-185588095D01*
D10*
D11*
X200434342Y-193785771D02*
X200434342Y-192285771D01*
X200791485Y-192285771D01*
X201005771Y-192357200D01*
X201148628Y-192500057D01*
X201220057Y-192642914D01*
X201291485Y-192928628D01*
X201291485Y-193142914D01*
X201220057Y-193428628D01*
X201148628Y-193571485D01*
X201005771Y-193714342D01*
X200791485Y-193785771D01*
X200434342Y-193785771D01*
X202577200Y-193785771D02*
X202577200Y-193000057D01*
X202505771Y-192857200D01*
X202362914Y-192785771D01*
X202077200Y-192785771D01*
X201934342Y-192857200D01*
X202577200Y-193714342D02*
X202434342Y-193785771D01*
X202077200Y-193785771D01*
X201934342Y-193714342D01*
X201862914Y-193571485D01*
X201862914Y-193428628D01*
X201934342Y-193285771D01*
X202077200Y-193214342D01*
X202434342Y-193214342D01*
X202577200Y-193142914D01*
X203077200Y-192785771D02*
X203648628Y-192785771D01*
X203291485Y-192285771D02*
X203291485Y-193571485D01*
X203362914Y-193714342D01*
X203505771Y-193785771D01*
X203648628Y-193785771D01*
X204720057Y-193714342D02*
X204577200Y-193785771D01*
X204291485Y-193785771D01*
X204148628Y-193714342D01*
X204077200Y-193571485D01*
X204077200Y-193000057D01*
X204148628Y-192857200D01*
X204291485Y-192785771D01*
X204577200Y-192785771D01*
X204720057Y-192857200D01*
X204791485Y-193000057D01*
X204791485Y-193142914D01*
X204077200Y-193285771D01*
X205434342Y-193642914D02*
X205505771Y-193714342D01*
X205434342Y-193785771D01*
X205362914Y-193714342D01*
X205434342Y-193642914D01*
X205434342Y-193785771D01*
X205434342Y-192857200D02*
X205505771Y-192928628D01*
X205434342Y-193000057D01*
X205362914Y-192928628D01*
X205434342Y-192857200D01*
X205434342Y-193000057D01*
D10*
D11*
X177002200Y-194507200D02*
X285002200Y-194507200D01*
D10*
D11*
X178434342Y-196585771D02*
X178434342Y-195085771D01*
X179291485Y-196585771D02*
X178648628Y-195728628D01*
X179291485Y-195085771D02*
X178434342Y-195942914D01*
X179934342Y-196585771D02*
X179934342Y-195585771D01*
X179934342Y-195085771D02*
X179862914Y-195157200D01*
X179934342Y-195228628D01*
X180005771Y-195157200D01*
X179934342Y-195085771D01*
X179934342Y-195228628D01*
X181505771Y-196442914D02*
X181434342Y-196514342D01*
X181220057Y-196585771D01*
X181077200Y-196585771D01*
X180862914Y-196514342D01*
X180720057Y-196371485D01*
X180648628Y-196228628D01*
X180577200Y-195942914D01*
X180577200Y-195728628D01*
X180648628Y-195442914D01*
X180720057Y-195300057D01*
X180862914Y-195157200D01*
X181077200Y-195085771D01*
X181220057Y-195085771D01*
X181434342Y-195157200D01*
X181505771Y-195228628D01*
X182791485Y-196585771D02*
X182791485Y-195800057D01*
X182720057Y-195657200D01*
X182577200Y-195585771D01*
X182291485Y-195585771D01*
X182148628Y-195657200D01*
X182791485Y-196514342D02*
X182648628Y-196585771D01*
X182291485Y-196585771D01*
X182148628Y-196514342D01*
X182077200Y-196371485D01*
X182077200Y-196228628D01*
X182148628Y-196085771D01*
X182291485Y-196014342D01*
X182648628Y-196014342D01*
X182791485Y-195942914D01*
X184148628Y-196585771D02*
X184148628Y-195085771D01*
X184148628Y-196514342D02*
X184005771Y-196585771D01*
X183720057Y-196585771D01*
X183577200Y-196514342D01*
X183505771Y-196442914D01*
X183434342Y-196300057D01*
X183434342Y-195871485D01*
X183505771Y-195728628D01*
X183577200Y-195657200D01*
X183720057Y-195585771D01*
X184005771Y-195585771D01*
X184148628Y-195657200D01*
X186005771Y-195800057D02*
X186505771Y-195800057D01*
X186720057Y-196585771D02*
X186005771Y-196585771D01*
X186005771Y-195085771D01*
X186720057Y-195085771D01*
X187362914Y-196442914D02*
X187434342Y-196514342D01*
X187362914Y-196585771D01*
X187291485Y-196514342D01*
X187362914Y-196442914D01*
X187362914Y-196585771D01*
X188077200Y-196585771D02*
X188077200Y-195085771D01*
X188434342Y-195085771D01*
X188648628Y-195157200D01*
X188791485Y-195300057D01*
X188862914Y-195442914D01*
X188934342Y-195728628D01*
X188934342Y-195942914D01*
X188862914Y-196228628D01*
X188791485Y-196371485D01*
X188648628Y-196514342D01*
X188434342Y-196585771D01*
X188077200Y-196585771D01*
X189577200Y-196442914D02*
X189648628Y-196514342D01*
X189577200Y-196585771D01*
X189505771Y-196514342D01*
X189577200Y-196442914D01*
X189577200Y-196585771D01*
X190220057Y-196157200D02*
X190934342Y-196157200D01*
X190077200Y-196585771D02*
X190577200Y-195085771D01*
X191077200Y-196585771D01*
X191577200Y-196442914D02*
X191648628Y-196514342D01*
X191577200Y-196585771D01*
X191505771Y-196514342D01*
X191577200Y-196442914D01*
X191577200Y-196585771D01*
X194577200Y-195585771D02*
X194577200Y-197085771D01*
X194577200Y-195657200D02*
X194720057Y-195585771D01*
X195005771Y-195585771D01*
X195148628Y-195657200D01*
X195220057Y-195728628D01*
X195291485Y-195871485D01*
X195291485Y-196300057D01*
X195220057Y-196442914D01*
X195148628Y-196514342D01*
X195005771Y-196585771D01*
X194720057Y-196585771D01*
X194577200Y-196514342D01*
X196577200Y-196514342D02*
X196434342Y-196585771D01*
X196148628Y-196585771D01*
X196005771Y-196514342D01*
X195934342Y-196442914D01*
X195862914Y-196300057D01*
X195862914Y-195871485D01*
X195934342Y-195728628D01*
X196005771Y-195657200D01*
X196148628Y-195585771D01*
X196434342Y-195585771D01*
X196577200Y-195657200D01*
X197220057Y-196585771D02*
X197220057Y-195085771D01*
X197220057Y-195657200D02*
X197362914Y-195585771D01*
X197648628Y-195585771D01*
X197791485Y-195657200D01*
X197862914Y-195728628D01*
X197934342Y-195871485D01*
X197934342Y-196300057D01*
X197862914Y-196442914D01*
X197791485Y-196514342D01*
X197648628Y-196585771D01*
X197362914Y-196585771D01*
X197220057Y-196514342D01*
X198577200Y-195585771D02*
X198577200Y-196585771D01*
X198577200Y-195728628D02*
X198648628Y-195657200D01*
X198791485Y-195585771D01*
X199005771Y-195585771D01*
X199148628Y-195657200D01*
X199220057Y-195800057D01*
X199220057Y-196585771D01*
X200505771Y-196514342D02*
X200362914Y-196585771D01*
X200077200Y-196585771D01*
X199934342Y-196514342D01*
X199862914Y-196371485D01*
X199862914Y-195800057D01*
X199934342Y-195657200D01*
X200077200Y-195585771D01*
X200362914Y-195585771D01*
X200505771Y-195657200D01*
X200577200Y-195800057D01*
X200577200Y-195942914D01*
X199862914Y-196085771D01*
X201077200Y-195585771D02*
X201362914Y-196585771D01*
X201648628Y-195871485D01*
X201934342Y-196585771D01*
X202220057Y-195585771D01*
X204577200Y-195085771D02*
X204291485Y-195085771D01*
X204148628Y-195157200D01*
X204077200Y-195228628D01*
X203934342Y-195442914D01*
X203862914Y-195728628D01*
X203862914Y-196300057D01*
X203934342Y-196442914D01*
X204005771Y-196514342D01*
X204148628Y-196585771D01*
X204434342Y-196585771D01*
X204577200Y-196514342D01*
X204648628Y-196442914D01*
X204720057Y-196300057D01*
X204720057Y-195942914D01*
X204648628Y-195800057D01*
X204577200Y-195728628D01*
X204434342Y-195657200D01*
X204148628Y-195657200D01*
X204005771Y-195728628D01*
X203934342Y-195800057D01*
X203862914Y-195942914D01*
X205362914Y-196442914D02*
X205434342Y-196514342D01*
X205362914Y-196585771D01*
X205291485Y-196514342D01*
X205362914Y-196442914D01*
X205362914Y-196585771D01*
X206362914Y-195085771D02*
X206505771Y-195085771D01*
X206648628Y-195157200D01*
X206720057Y-195228628D01*
X206791485Y-195371485D01*
X206862914Y-195657200D01*
X206862914Y-196014342D01*
X206791485Y-196300057D01*
X206720057Y-196442914D01*
X206648628Y-196514342D01*
X206505771Y-196585771D01*
X206362914Y-196585771D01*
X206220057Y-196514342D01*
X206148628Y-196442914D01*
X206077200Y-196300057D01*
X206005771Y-196014342D01*
X206005771Y-195657200D01*
X206077200Y-195371485D01*
X206148628Y-195228628D01*
X206220057Y-195157200D01*
X206362914Y-195085771D01*
X207505771Y-196442914D02*
X207577200Y-196514342D01*
X207505771Y-196585771D01*
X207434342Y-196514342D01*
X207505771Y-196442914D01*
X207505771Y-196585771D01*
X208148628Y-195228628D02*
X208220057Y-195157200D01*
X208362914Y-195085771D01*
X208720057Y-195085771D01*
X208862914Y-195157200D01*
X208934342Y-195228628D01*
X209005771Y-195371485D01*
X209005771Y-195514342D01*
X208934342Y-195728628D01*
X208077200Y-196585771D01*
X209005771Y-196585771D01*
X209648628Y-196014342D02*
X210791485Y-196014342D01*
X211362914Y-195085771D02*
X212291485Y-195085771D01*
X211791485Y-195657200D01*
X212005771Y-195657200D01*
X212148628Y-195728628D01*
X212220057Y-195800057D01*
X212291485Y-195942914D01*
X212291485Y-196300057D01*
X212220057Y-196442914D01*
X212148628Y-196514342D01*
X212005771Y-196585771D01*
X211577200Y-196585771D01*
X211434342Y-196514342D01*
X211362914Y-196442914D01*
X212791485Y-195085771D02*
X213791485Y-195085771D01*
X213148628Y-196585771D01*
X214577200Y-195728628D02*
X214434342Y-195657200D01*
X214362914Y-195585771D01*
X214291485Y-195442914D01*
X214291485Y-195371485D01*
X214362914Y-195228628D01*
X214434342Y-195157200D01*
X214577200Y-195085771D01*
X214862914Y-195085771D01*
X215005771Y-195157200D01*
X215077200Y-195228628D01*
X215148628Y-195371485D01*
X215148628Y-195442914D01*
X215077200Y-195585771D01*
X215005771Y-195657200D01*
X214862914Y-195728628D01*
X214577200Y-195728628D01*
X214434342Y-195800057D01*
X214362914Y-195871485D01*
X214291485Y-196014342D01*
X214291485Y-196300057D01*
X214362914Y-196442914D01*
X214434342Y-196514342D01*
X214577200Y-196585771D01*
X214862914Y-196585771D01*
X215005771Y-196514342D01*
X215077200Y-196442914D01*
X215148628Y-196300057D01*
X215148628Y-196014342D01*
X215077200Y-195871485D01*
X215005771Y-195800057D01*
X214862914Y-195728628D01*
X216505771Y-195085771D02*
X215791485Y-195085771D01*
X215720057Y-195800057D01*
X215791485Y-195728628D01*
X215934342Y-195657200D01*
X216291485Y-195657200D01*
X216434342Y-195728628D01*
X216505771Y-195800057D01*
X216577200Y-195942914D01*
X216577200Y-196300057D01*
X216505771Y-196442914D01*
X216434342Y-196514342D01*
X216291485Y-196585771D01*
X215934342Y-196585771D01*
X215791485Y-196514342D01*
X215720057Y-196442914D01*
X217862914Y-195585771D02*
X217862914Y-196585771D01*
X217505771Y-195014342D02*
X217148628Y-196085771D01*
X218077200Y-196085771D01*
X219434342Y-196585771D02*
X218577200Y-196585771D01*
X219005771Y-196585771D02*
X219005771Y-195085771D01*
X218862914Y-195300057D01*
X218720057Y-195442914D01*
X218577200Y-195514342D01*
X220720057Y-196585771D02*
X220720057Y-195800057D01*
X220648628Y-195657200D01*
X220505771Y-195585771D01*
X220220057Y-195585771D01*
X220077200Y-195657200D01*
X220720057Y-196514342D02*
X220577200Y-196585771D01*
X220220057Y-196585771D01*
X220077200Y-196514342D01*
X220005771Y-196371485D01*
X220005771Y-196228628D01*
X220077200Y-196085771D01*
X220220057Y-196014342D01*
X220577200Y-196014342D01*
X220720057Y-195942914D01*
X221648628Y-195728628D02*
X221505771Y-195657200D01*
X221434342Y-195585771D01*
X221362914Y-195442914D01*
X221362914Y-195371485D01*
X221434342Y-195228628D01*
X221505771Y-195157200D01*
X221648628Y-195085771D01*
X221934342Y-195085771D01*
X222077200Y-195157200D01*
X222148628Y-195228628D01*
X222220057Y-195371485D01*
X222220057Y-195442914D01*
X222148628Y-195585771D01*
X222077200Y-195657200D01*
X221934342Y-195728628D01*
X221648628Y-195728628D01*
X221505771Y-195800057D01*
X221434342Y-195871485D01*
X221362914Y-196014342D01*
X221362914Y-196300057D01*
X221434342Y-196442914D01*
X221505771Y-196514342D01*
X221648628Y-196585771D01*
X221934342Y-196585771D01*
X222077200Y-196514342D01*
X222148628Y-196442914D01*
X222220057Y-196300057D01*
X222220057Y-196014342D01*
X222148628Y-195871485D01*
X222077200Y-195800057D01*
X221934342Y-195728628D01*
X223434342Y-196514342D02*
X223291485Y-196585771D01*
X223005771Y-196585771D01*
X222862914Y-196514342D01*
X222791485Y-196371485D01*
X222791485Y-195800057D01*
X222862914Y-195657200D01*
X223005771Y-195585771D01*
X223291485Y-195585771D01*
X223434342Y-195657200D01*
X223505771Y-195800057D01*
X223505771Y-195942914D01*
X222791485Y-196085771D01*
X224148628Y-196585771D02*
X224148628Y-195085771D01*
X224148628Y-195657200D02*
X224291485Y-195585771D01*
X224577199Y-195585771D01*
X224720057Y-195657200D01*
X224791485Y-195728628D01*
X224862914Y-195871485D01*
X224862914Y-196300057D01*
X224791485Y-196442914D01*
X224720057Y-196514342D01*
X224577199Y-196585771D01*
X224291485Y-196585771D01*
X224148628Y-196514342D01*
X225291485Y-196014342D02*
X225362914Y-195942914D01*
X225505771Y-195871485D01*
X225791485Y-196014342D01*
X225934342Y-195942914D01*
X226005771Y-195871485D01*
X227362914Y-196585771D02*
X226505771Y-196585771D01*
X226934342Y-196585771D02*
X226934342Y-195085771D01*
X226791485Y-195300057D01*
X226648628Y-195442914D01*
X226505771Y-195514342D01*
X228791485Y-196585771D02*
X227934342Y-196585771D01*
X228362914Y-196585771D02*
X228362914Y-195085771D01*
X228220057Y-195300057D01*
X228077199Y-195442914D01*
X227934342Y-195514342D01*
X230077199Y-195085771D02*
X229791485Y-195085771D01*
X229648628Y-195157200D01*
X229577199Y-195228628D01*
X229434342Y-195442914D01*
X229362914Y-195728628D01*
X229362914Y-196300057D01*
X229434342Y-196442914D01*
X229505771Y-196514342D01*
X229648628Y-196585771D01*
X229934342Y-196585771D01*
X230077199Y-196514342D01*
X230148628Y-196442914D01*
X230220057Y-196300057D01*
X230220057Y-195942914D01*
X230148628Y-195800057D01*
X230077199Y-195728628D01*
X229934342Y-195657200D01*
X229648628Y-195657200D01*
X229505771Y-195728628D01*
X229434342Y-195800057D01*
X229362914Y-195942914D01*
X230648628Y-196014342D02*
X230720057Y-195942914D01*
X230862914Y-195871485D01*
X231148628Y-196014342D01*
X231291485Y-195942914D01*
X231362914Y-195871485D01*
X232577199Y-195585771D02*
X232577199Y-196585771D01*
X231934342Y-195585771D02*
X231934342Y-196371485D01*
X232005771Y-196514342D01*
X232148628Y-196585771D01*
X232362914Y-196585771D01*
X232505771Y-196514342D01*
X232577199Y-196442914D01*
X233291485Y-196585771D02*
X233291485Y-195085771D01*
X233291485Y-195657200D02*
X233434342Y-195585771D01*
X233720057Y-195585771D01*
X233862914Y-195657200D01*
X233934342Y-195728628D01*
X234005771Y-195871485D01*
X234005771Y-196300057D01*
X233934342Y-196442914D01*
X233862914Y-196514342D01*
X233720057Y-196585771D01*
X233434342Y-196585771D01*
X233291485Y-196514342D01*
X235291485Y-195585771D02*
X235291485Y-196585771D01*
X234648628Y-195585771D02*
X234648628Y-196371485D01*
X234720057Y-196514342D01*
X234862914Y-196585771D01*
X235077199Y-196585771D01*
X235220057Y-196514342D01*
X235291485Y-196442914D01*
X236005771Y-195585771D02*
X236005771Y-196585771D01*
X236005771Y-195728628D02*
X236077199Y-195657200D01*
X236220057Y-195585771D01*
X236434342Y-195585771D01*
X236577199Y-195657200D01*
X236648628Y-195800057D01*
X236648628Y-196585771D01*
X237148628Y-195585771D02*
X237720057Y-195585771D01*
X237362914Y-195085771D02*
X237362914Y-196371485D01*
X237434342Y-196514342D01*
X237577200Y-196585771D01*
X237720057Y-196585771D01*
X238862914Y-195585771D02*
X238862914Y-196585771D01*
X238220057Y-195585771D02*
X238220057Y-196371485D01*
X238291485Y-196514342D01*
X238434342Y-196585771D01*
X238648628Y-196585771D01*
X238791485Y-196514342D01*
X238862914Y-196442914D01*
X239505771Y-195228628D02*
X239577200Y-195157200D01*
X239720057Y-195085771D01*
X240077200Y-195085771D01*
X240220057Y-195157200D01*
X240291485Y-195228628D01*
X240362914Y-195371485D01*
X240362914Y-195514342D01*
X240291485Y-195728628D01*
X239434342Y-196585771D01*
X240362914Y-196585771D01*
X241291485Y-195085771D02*
X241434342Y-195085771D01*
X241577199Y-195157200D01*
X241648628Y-195228628D01*
X241720057Y-195371485D01*
X241791485Y-195657200D01*
X241791485Y-196014342D01*
X241720057Y-196300057D01*
X241648628Y-196442914D01*
X241577199Y-196514342D01*
X241434342Y-196585771D01*
X241291485Y-196585771D01*
X241148628Y-196514342D01*
X241077199Y-196442914D01*
X241005771Y-196300057D01*
X240934342Y-196014342D01*
X240934342Y-195657200D01*
X241005771Y-195371485D01*
X241077199Y-195228628D01*
X241148628Y-195157200D01*
X241291485Y-195085771D01*
X242434342Y-196442914D02*
X242505771Y-196514342D01*
X242434342Y-196585771D01*
X242362914Y-196514342D01*
X242434342Y-196442914D01*
X242434342Y-196585771D01*
X243434342Y-195085771D02*
X243577199Y-195085771D01*
X243720057Y-195157200D01*
X243791485Y-195228628D01*
X243862914Y-195371485D01*
X243934342Y-195657200D01*
X243934342Y-196014342D01*
X243862914Y-196300057D01*
X243791485Y-196442914D01*
X243720057Y-196514342D01*
X243577199Y-196585771D01*
X243434342Y-196585771D01*
X243291485Y-196514342D01*
X243220057Y-196442914D01*
X243148628Y-196300057D01*
X243077199Y-196014342D01*
X243077199Y-195657200D01*
X243148628Y-195371485D01*
X243220057Y-195228628D01*
X243291485Y-195157200D01*
X243434342Y-195085771D01*
X245220057Y-195585771D02*
X245220057Y-196585771D01*
X244862914Y-195014342D02*
X244505771Y-196085771D01*
X245434342Y-196085771D01*
X246005771Y-196442914D02*
X246077200Y-196514342D01*
X246005771Y-196585771D01*
X245934342Y-196514342D01*
X246005771Y-196442914D01*
X246005771Y-196585771D01*
X247505771Y-196585771D02*
X246648628Y-196585771D01*
X247077200Y-196585771D02*
X247077200Y-195085771D01*
X246934342Y-195300057D01*
X246791485Y-195442914D01*
X246648628Y-195514342D01*
D10*
D11*
X177002200Y-191507200D02*
X285002200Y-191507200D01*
D10*
D12*
X264411485Y-193785771D02*
X263911485Y-193071485D01*
X263554342Y-193785771D02*
X263554342Y-192285771D01*
X264125771Y-192285771D01*
X264268628Y-192357200D01*
X264340057Y-192428628D01*
X264411485Y-192571485D01*
X264411485Y-192785771D01*
X264340057Y-192928628D01*
X264268628Y-193000057D01*
X264125771Y-193071485D01*
X263554342Y-193071485D01*
X265625771Y-193714342D02*
X265482914Y-193785771D01*
X265197200Y-193785771D01*
X265054342Y-193714342D01*
X264982914Y-193571485D01*
X264982914Y-193000057D01*
X265054342Y-192857200D01*
X265197200Y-192785771D01*
X265482914Y-192785771D01*
X265625771Y-192857200D01*
X265697200Y-193000057D01*
X265697200Y-193142914D01*
X264982914Y-193285771D01*
X266197200Y-192785771D02*
X266554342Y-193785771D01*
X266911485Y-192785771D01*
X267482914Y-193642914D02*
X267554342Y-193714342D01*
X267482914Y-193785771D01*
X267411485Y-193714342D01*
X267482914Y-193642914D01*
X267482914Y-193785771D01*
X267482914Y-192857200D02*
X267554342Y-192928628D01*
X267482914Y-193000057D01*
X267411485Y-192928628D01*
X267482914Y-192857200D01*
X267482914Y-193000057D01*
D10*
D11*
X178362914Y-193714342D02*
X178577200Y-193785771D01*
X178934342Y-193785771D01*
X179077200Y-193714342D01*
X179148628Y-193642914D01*
X179220057Y-193500057D01*
X179220057Y-193357200D01*
X179148628Y-193214342D01*
X179077200Y-193142914D01*
X178934342Y-193071485D01*
X178648628Y-193000057D01*
X178505771Y-192928628D01*
X178434342Y-192857200D01*
X178362914Y-192714342D01*
X178362914Y-192571485D01*
X178434342Y-192428628D01*
X178505771Y-192357200D01*
X178648628Y-192285771D01*
X179005771Y-192285771D01*
X179220057Y-192357200D01*
X179862914Y-193785771D02*
X179862914Y-192785771D01*
X179862914Y-192285771D02*
X179791485Y-192357200D01*
X179862914Y-192428628D01*
X179934342Y-192357200D01*
X179862914Y-192285771D01*
X179862914Y-192428628D01*
X180434342Y-192785771D02*
X181220057Y-192785771D01*
X180434342Y-193785771D01*
X181220057Y-193785771D01*
X182362914Y-193714342D02*
X182220057Y-193785771D01*
X181934342Y-193785771D01*
X181791485Y-193714342D01*
X181720057Y-193571485D01*
X181720057Y-193000057D01*
X181791485Y-192857200D01*
X181934342Y-192785771D01*
X182220057Y-192785771D01*
X182362914Y-192857200D01*
X182434342Y-193000057D01*
X182434342Y-193142914D01*
X181720057Y-193285771D01*
X183077200Y-193642914D02*
X183148628Y-193714342D01*
X183077200Y-193785771D01*
X183005771Y-193714342D01*
X183077200Y-193642914D01*
X183077200Y-193785771D01*
X183077200Y-192857200D02*
X183148628Y-192928628D01*
X183077200Y-193000057D01*
X183005771Y-192928628D01*
X183077200Y-192857200D01*
X183077200Y-193000057D01*
X184862914Y-193357200D02*
X185577200Y-193357200D01*
X184720057Y-193785771D02*
X185220057Y-192285771D01*
X185720057Y-193785771D01*
X186862914Y-192785771D02*
X186862914Y-193785771D01*
X186505771Y-192214342D02*
X186148628Y-193285771D01*
X187077200Y-193285771D01*
D10*
D11*
X263434342Y-196585771D02*
X263434342Y-195085771D01*
X264791485Y-196585771D02*
X264791485Y-195085771D01*
X264791485Y-196514342D02*
X264648628Y-196585771D01*
X264362914Y-196585771D01*
X264220057Y-196514342D01*
X264148628Y-196442914D01*
X264077200Y-196300057D01*
X264077200Y-195871485D01*
X264148628Y-195728628D01*
X264220057Y-195657200D01*
X264362914Y-195585771D01*
X264648628Y-195585771D01*
X264791485Y-195657200D01*
X265505771Y-196442914D02*
X265577200Y-196514342D01*
X265505771Y-196585771D01*
X265434342Y-196514342D01*
X265505771Y-196442914D01*
X265505771Y-196585771D01*
X265505771Y-195657200D02*
X265577200Y-195728628D01*
X265505771Y-195800057D01*
X265434342Y-195728628D01*
X265505771Y-195657200D01*
X265505771Y-195800057D01*
X268148628Y-196585771D02*
X267291485Y-196585771D01*
X267720057Y-196585771D02*
X267720057Y-195085771D01*
X267577200Y-195300057D01*
X267434342Y-195442914D01*
X267291485Y-195514342D01*
X269862914Y-195014342D02*
X268577200Y-196942914D01*
X271148628Y-196585771D02*
X270291485Y-196585771D01*
X270720057Y-196585771D02*
X270720057Y-195085771D01*
X270577200Y-195300057D01*
X270434342Y-195442914D01*
X270291485Y-195514342D01*
D10*
D11*
X177002200Y-187507200D02*
X285002200Y-187507200D01*
D10*
D13*
X178714580Y-188211961D02*
X179857438Y-188211961D01*
X179036009Y-190211961D02*
X179286009Y-188211961D01*
X180274104Y-190211961D02*
X180440771Y-188878628D01*
X180524104Y-188211961D02*
X180416961Y-188307200D01*
X180500295Y-188402438D01*
X180607438Y-188307200D01*
X180524104Y-188211961D01*
X180500295Y-188402438D01*
X181107438Y-188878628D02*
X181869342Y-188878628D01*
X181476485Y-188211961D02*
X181262200Y-189926247D01*
X181333628Y-190116723D01*
X181512200Y-190211961D01*
X181702676Y-190211961D01*
X182655057Y-190211961D02*
X182476485Y-190116723D01*
X182405057Y-189926247D01*
X182619342Y-188211961D01*
X184190771Y-190116723D02*
X183988390Y-190211961D01*
X183607438Y-190211961D01*
X183428866Y-190116723D01*
X183357438Y-189926247D01*
X183452676Y-189164342D01*
X183571723Y-188973866D01*
X183774104Y-188878628D01*
X184155057Y-188878628D01*
X184333628Y-188973866D01*
X184405057Y-189164342D01*
X184381247Y-189354819D01*
X183405057Y-189545295D01*
X185155057Y-190021485D02*
X185238390Y-190116723D01*
X185131247Y-190211961D01*
X185047914Y-190116723D01*
X185155057Y-190021485D01*
X185131247Y-190211961D01*
X185286009Y-188973866D02*
X185369342Y-189069104D01*
X185262200Y-189164342D01*
X185178866Y-189069104D01*
X185286009Y-188973866D01*
X185262200Y-189164342D01*
D10*
D11*
X178934342Y-185600057D02*
X178434342Y-185600057D01*
X178434342Y-186385771D02*
X178434342Y-184885771D01*
X179148628Y-184885771D01*
X179720057Y-186385771D02*
X179720057Y-185385771D01*
X179720057Y-184885771D02*
X179648628Y-184957200D01*
X179720057Y-185028628D01*
X179791485Y-184957200D01*
X179720057Y-184885771D01*
X179720057Y-185028628D01*
X180648628Y-186385771D02*
X180505771Y-186314342D01*
X180434342Y-186171485D01*
X180434342Y-184885771D01*
X181791485Y-186314342D02*
X181648628Y-186385771D01*
X181362914Y-186385771D01*
X181220057Y-186314342D01*
X181148628Y-186171485D01*
X181148628Y-185600057D01*
X181220057Y-185457200D01*
X181362914Y-185385771D01*
X181648628Y-185385771D01*
X181791485Y-185457200D01*
X181862914Y-185600057D01*
X181862914Y-185742914D01*
X181148628Y-185885771D01*
X182505771Y-186242914D02*
X182577200Y-186314342D01*
X182505771Y-186385771D01*
X182434342Y-186314342D01*
X182505771Y-186242914D01*
X182505771Y-186385771D01*
X182505771Y-185457200D02*
X182577200Y-185528628D01*
X182505771Y-185600057D01*
X182434342Y-185528628D01*
X182505771Y-185457200D01*
X182505771Y-185600057D01*
X184148628Y-185385771D02*
X184720057Y-185385771D01*
X184362914Y-184885771D02*
X184362914Y-186171485D01*
X184434342Y-186314342D01*
X184577200Y-186385771D01*
X184720057Y-186385771D01*
X185434342Y-186385771D02*
X185291485Y-186314342D01*
X185220057Y-186242914D01*
X185148628Y-186100057D01*
X185148628Y-185671485D01*
X185220057Y-185528628D01*
X185291485Y-185457200D01*
X185434342Y-185385771D01*
X185648628Y-185385771D01*
X185791485Y-185457200D01*
X185862914Y-185528628D01*
X185934342Y-185671485D01*
X185934342Y-186100057D01*
X185862914Y-186242914D01*
X185791485Y-186314342D01*
X185648628Y-186385771D01*
X185434342Y-186385771D01*
X187220057Y-185385771D02*
X187220057Y-186385771D01*
X186577200Y-185385771D02*
X186577200Y-186171485D01*
X186648628Y-186314342D01*
X186791485Y-186385771D01*
X187005771Y-186385771D01*
X187148628Y-186314342D01*
X187220057Y-186242914D01*
X188577200Y-186314342D02*
X188434342Y-186385771D01*
X188148628Y-186385771D01*
X188005771Y-186314342D01*
X187934342Y-186242914D01*
X187862914Y-186100057D01*
X187862914Y-185671485D01*
X187934342Y-185528628D01*
X188005771Y-185457200D01*
X188148628Y-185385771D01*
X188434342Y-185385771D01*
X188577200Y-185457200D01*
X189220057Y-186385771D02*
X189220057Y-184885771D01*
X189862914Y-186385771D02*
X189862914Y-185600057D01*
X189791485Y-185457200D01*
X189648628Y-185385771D01*
X189434342Y-185385771D01*
X189291485Y-185457200D01*
X189220057Y-185528628D01*
X190220057Y-186528628D02*
X191362914Y-186528628D01*
X191720057Y-185385771D02*
X191720057Y-186885771D01*
X191720057Y-185457200D02*
X191862914Y-185385771D01*
X192148628Y-185385771D01*
X192291485Y-185457200D01*
X192362914Y-185528628D01*
X192434342Y-185671485D01*
X192434342Y-186100057D01*
X192362914Y-186242914D01*
X192291485Y-186314342D01*
X192148628Y-186385771D01*
X191862914Y-186385771D01*
X191720057Y-186314342D01*
X193720057Y-186385771D02*
X193720057Y-185600057D01*
X193648628Y-185457200D01*
X193505771Y-185385771D01*
X193220057Y-185385771D01*
X193077200Y-185457200D01*
X193720057Y-186314342D02*
X193577200Y-186385771D01*
X193220057Y-186385771D01*
X193077200Y-186314342D01*
X193005771Y-186171485D01*
X193005771Y-186028628D01*
X193077200Y-185885771D01*
X193220057Y-185814342D01*
X193577200Y-185814342D01*
X193720057Y-185742914D01*
X194434342Y-185385771D02*
X194434342Y-186385771D01*
X194434342Y-185528628D02*
X194505771Y-185457200D01*
X194648628Y-185385771D01*
X194862914Y-185385771D01*
X195005771Y-185457200D01*
X195077200Y-185600057D01*
X195077200Y-186385771D01*
X196362914Y-186314342D02*
X196220057Y-186385771D01*
X195934342Y-186385771D01*
X195791485Y-186314342D01*
X195720057Y-186171485D01*
X195720057Y-185600057D01*
X195791485Y-185457200D01*
X195934342Y-185385771D01*
X196220057Y-185385771D01*
X196362914Y-185457200D01*
X196434342Y-185600057D01*
X196434342Y-185742914D01*
X195720057Y-185885771D01*
X197291485Y-186385771D02*
X197148628Y-186314342D01*
X197077200Y-186171485D01*
X197077200Y-184885771D01*
X197862914Y-186242914D02*
X197934342Y-186314342D01*
X197862914Y-186385771D01*
X197791485Y-186314342D01*
X197862914Y-186242914D01*
X197862914Y-186385771D01*
X198577200Y-186385771D02*
X198577200Y-184885771D01*
X198720057Y-185814342D02*
X199148628Y-186385771D01*
X199148628Y-185385771D02*
X198577200Y-185957200D01*
X199791485Y-186385771D02*
X199791485Y-185385771D01*
X199791485Y-184885771D02*
X199720057Y-184957200D01*
X199791485Y-185028628D01*
X199862914Y-184957200D01*
X199791485Y-184885771D01*
X199791485Y-185028628D01*
X201148628Y-186314342D02*
X201005771Y-186385771D01*
X200720057Y-186385771D01*
X200577200Y-186314342D01*
X200505771Y-186242914D01*
X200434342Y-186100057D01*
X200434342Y-185671485D01*
X200505771Y-185528628D01*
X200577200Y-185457200D01*
X200720057Y-185385771D01*
X201005771Y-185385771D01*
X201148628Y-185457200D01*
X202434342Y-186385771D02*
X202434342Y-185600057D01*
X202362914Y-185457200D01*
X202220057Y-185385771D01*
X201934342Y-185385771D01*
X201791485Y-185457200D01*
X202434342Y-186314342D02*
X202291485Y-186385771D01*
X201934342Y-186385771D01*
X201791485Y-186314342D01*
X201720057Y-186171485D01*
X201720057Y-186028628D01*
X201791485Y-185885771D01*
X201934342Y-185814342D01*
X202291485Y-185814342D01*
X202434342Y-185742914D01*
X203791485Y-186385771D02*
X203791485Y-184885771D01*
X203791485Y-186314342D02*
X203648628Y-186385771D01*
X203362914Y-186385771D01*
X203220057Y-186314342D01*
X203148628Y-186242914D01*
X203077200Y-186100057D01*
X203077200Y-185671485D01*
X203148628Y-185528628D01*
X203220057Y-185457200D01*
X203362914Y-185385771D01*
X203648628Y-185385771D01*
X203791485Y-185457200D01*
X204148628Y-186528628D02*
X205291485Y-186528628D01*
X205648628Y-185385771D02*
X205648628Y-186885771D01*
X205648628Y-185457200D02*
X205791485Y-185385771D01*
X206077200Y-185385771D01*
X206220057Y-185457200D01*
X206291485Y-185528628D01*
X206362914Y-185671485D01*
X206362914Y-186100057D01*
X206291485Y-186242914D01*
X206220057Y-186314342D01*
X206077200Y-186385771D01*
X205791485Y-186385771D01*
X205648628Y-186314342D01*
X207648628Y-186314342D02*
X207505771Y-186385771D01*
X207220057Y-186385771D01*
X207077200Y-186314342D01*
X207005771Y-186242914D01*
X206934342Y-186100057D01*
X206934342Y-185671485D01*
X207005771Y-185528628D01*
X207077200Y-185457200D01*
X207220057Y-185385771D01*
X207505771Y-185385771D01*
X207648628Y-185457200D01*
X208291485Y-186385771D02*
X208291485Y-184885771D01*
X208291485Y-185457200D02*
X208434342Y-185385771D01*
X208720057Y-185385771D01*
X208862914Y-185457200D01*
X208934342Y-185528628D01*
X209005771Y-185671485D01*
X209005771Y-186100057D01*
X208934342Y-186242914D01*
X208862914Y-186314342D01*
X208720057Y-186385771D01*
X208434342Y-186385771D01*
X208291485Y-186314342D01*
D10*
D11*
X177002200Y-181507200D02*
X285002200Y-181507200D01*
D10*
D11*
X178362914Y-183614342D02*
X178577200Y-183685771D01*
X178934342Y-183685771D01*
X179077200Y-183614342D01*
X179148628Y-183542914D01*
X179220057Y-183400057D01*
X179220057Y-183257200D01*
X179148628Y-183114342D01*
X179077200Y-183042914D01*
X178934342Y-182971485D01*
X178648628Y-182900057D01*
X178505771Y-182828628D01*
X178434342Y-182757200D01*
X178362914Y-182614342D01*
X178362914Y-182471485D01*
X178434342Y-182328628D01*
X178505771Y-182257200D01*
X178648628Y-182185771D01*
X179005771Y-182185771D01*
X179220057Y-182257200D01*
X179862914Y-183685771D02*
X179862914Y-182185771D01*
X180505771Y-183685771D02*
X180505771Y-182900057D01*
X180434342Y-182757200D01*
X180291485Y-182685771D01*
X180077200Y-182685771D01*
X179934342Y-182757200D01*
X179862914Y-182828628D01*
X181791485Y-183614342D02*
X181648628Y-183685771D01*
X181362914Y-183685771D01*
X181220057Y-183614342D01*
X181148628Y-183471485D01*
X181148628Y-182900057D01*
X181220057Y-182757200D01*
X181362914Y-182685771D01*
X181648628Y-182685771D01*
X181791485Y-182757200D01*
X181862914Y-182900057D01*
X181862914Y-183042914D01*
X181148628Y-183185771D01*
X183077200Y-183614342D02*
X182934342Y-183685771D01*
X182648628Y-183685771D01*
X182505771Y-183614342D01*
X182434342Y-183471485D01*
X182434342Y-182900057D01*
X182505771Y-182757200D01*
X182648628Y-182685771D01*
X182934342Y-182685771D01*
X183077200Y-182757200D01*
X183148628Y-182900057D01*
X183148628Y-183042914D01*
X182434342Y-183185771D01*
X183577200Y-182685771D02*
X184148628Y-182685771D01*
X183791485Y-182185771D02*
X183791485Y-183471485D01*
X183862914Y-183614342D01*
X184005771Y-183685771D01*
X184148628Y-183685771D01*
X184648628Y-183542914D02*
X184720057Y-183614342D01*
X184648628Y-183685771D01*
X184577200Y-183614342D01*
X184648628Y-183542914D01*
X184648628Y-183685771D01*
X184648628Y-182757200D02*
X184720057Y-182828628D01*
X184648628Y-182900057D01*
X184577200Y-182828628D01*
X184648628Y-182757200D01*
X184648628Y-182900057D01*
D10*
D12*
D10*
D11*
D10*
D11*
D10*
D11*
D10*
D11*
D10*
D11*
X197002200Y-191507200D02*
X197002200Y-194507200D01*
D10*
D11*
X261002200Y-191507200D02*
X261002200Y-198007200D01*
D14*
X107500000Y-79400000D02*
X157500000Y-79400000D01*
X157500000Y-79400000D02*
X157500000Y-129400000D01*
X157500000Y-129400000D02*
X107500000Y-129400000D01*
X107500000Y-129400000D02*
X107500000Y-79400000D01*
D11*
%TO.C,R15*%
X147642857Y-85652380D02*
X147976190Y-85176190D01*
X148214285Y-85652380D02*
X148214285Y-84652380D01*
X147833333Y-84652380D01*
X147738095Y-84700000D01*
X147690476Y-84747619D01*
X147642857Y-84842857D01*
X147642857Y-84985714D01*
X147690476Y-85080952D01*
X147738095Y-85128571D01*
X147833333Y-85176190D01*
X148214285Y-85176190D01*
X146690476Y-85652380D02*
X147261904Y-85652380D01*
X146976190Y-85652380D02*
X146976190Y-84652380D01*
X147071428Y-84795238D01*
X147166666Y-84890476D01*
X147261904Y-84938095D01*
X145785714Y-84652380D02*
X146261904Y-84652380D01*
X146309523Y-85128571D01*
X146261904Y-85080952D01*
X146166666Y-85033333D01*
X145928571Y-85033333D01*
X145833333Y-85080952D01*
X145785714Y-85128571D01*
X145738095Y-85223809D01*
X145738095Y-85461904D01*
X145785714Y-85557142D01*
X145833333Y-85604761D01*
X145928571Y-85652380D01*
X146166666Y-85652380D01*
X146261904Y-85604761D01*
X146309523Y-85557142D01*
%TO.C,Q6*%
X150897619Y-93854761D02*
X150850000Y-93759523D01*
X150754761Y-93664285D01*
X150611904Y-93521428D01*
X150564285Y-93426190D01*
X150564285Y-93330952D01*
X150802380Y-93378571D02*
X150754761Y-93283333D01*
X150659523Y-93188095D01*
X150469047Y-93140476D01*
X150135714Y-93140476D01*
X149945238Y-93188095D01*
X149850000Y-93283333D01*
X149802380Y-93378571D01*
X149802380Y-93569047D01*
X149850000Y-93664285D01*
X149945238Y-93759523D01*
X150135714Y-93807142D01*
X150469047Y-93807142D01*
X150659523Y-93759523D01*
X150754761Y-93664285D01*
X150802380Y-93569047D01*
X150802380Y-93378571D01*
X149802380Y-94664285D02*
X149802380Y-94473809D01*
X149850000Y-94378571D01*
X149897619Y-94330952D01*
X150040476Y-94235714D01*
X150230952Y-94188095D01*
X150611904Y-94188095D01*
X150707142Y-94235714D01*
X150754761Y-94283333D01*
X150802380Y-94378571D01*
X150802380Y-94569047D01*
X150754761Y-94664285D01*
X150707142Y-94711904D01*
X150611904Y-94759523D01*
X150373809Y-94759523D01*
X150278571Y-94711904D01*
X150230952Y-94664285D01*
X150183333Y-94569047D01*
X150183333Y-94378571D01*
X150230952Y-94283333D01*
X150278571Y-94235714D01*
X150373809Y-94188095D01*
%TO.C,Q1*%
X110347619Y-94904761D02*
X110300000Y-94809523D01*
X110204761Y-94714285D01*
X110061904Y-94571428D01*
X110014285Y-94476190D01*
X110014285Y-94380952D01*
X110252380Y-94428571D02*
X110204761Y-94333333D01*
X110109523Y-94238095D01*
X109919047Y-94190476D01*
X109585714Y-94190476D01*
X109395238Y-94238095D01*
X109300000Y-94333333D01*
X109252380Y-94428571D01*
X109252380Y-94619047D01*
X109300000Y-94714285D01*
X109395238Y-94809523D01*
X109585714Y-94857142D01*
X109919047Y-94857142D01*
X110109523Y-94809523D01*
X110204761Y-94714285D01*
X110252380Y-94619047D01*
X110252380Y-94428571D01*
X110252380Y-95809523D02*
X110252380Y-95238095D01*
X110252380Y-95523809D02*
X109252380Y-95523809D01*
X109395238Y-95428571D01*
X109490476Y-95333333D01*
X109538095Y-95238095D01*
%TO.C,R3*%
X116666666Y-85752380D02*
X117000000Y-85276190D01*
X117238095Y-85752380D02*
X117238095Y-84752380D01*
X116857142Y-84752380D01*
X116761904Y-84800000D01*
X116714285Y-84847619D01*
X116666666Y-84942857D01*
X116666666Y-85085714D01*
X116714285Y-85180952D01*
X116761904Y-85228571D01*
X116857142Y-85276190D01*
X117238095Y-85276190D01*
X116333333Y-84752380D02*
X115714285Y-84752380D01*
X116047619Y-85133333D01*
X115904761Y-85133333D01*
X115809523Y-85180952D01*
X115761904Y-85228571D01*
X115714285Y-85323809D01*
X115714285Y-85561904D01*
X115761904Y-85657142D01*
X115809523Y-85704761D01*
X115904761Y-85752380D01*
X116190476Y-85752380D01*
X116285714Y-85704761D01*
X116333333Y-85657142D01*
%TO.C,Q3*%
X128097619Y-93604761D02*
X128050000Y-93509523D01*
X127954761Y-93414285D01*
X127811904Y-93271428D01*
X127764285Y-93176190D01*
X127764285Y-93080952D01*
X128002380Y-93128571D02*
X127954761Y-93033333D01*
X127859523Y-92938095D01*
X127669047Y-92890476D01*
X127335714Y-92890476D01*
X127145238Y-92938095D01*
X127050000Y-93033333D01*
X127002380Y-93128571D01*
X127002380Y-93319047D01*
X127050000Y-93414285D01*
X127145238Y-93509523D01*
X127335714Y-93557142D01*
X127669047Y-93557142D01*
X127859523Y-93509523D01*
X127954761Y-93414285D01*
X128002380Y-93319047D01*
X128002380Y-93128571D01*
X127002380Y-93890476D02*
X127002380Y-94509523D01*
X127383333Y-94176190D01*
X127383333Y-94319047D01*
X127430952Y-94414285D01*
X127478571Y-94461904D01*
X127573809Y-94509523D01*
X127811904Y-94509523D01*
X127907142Y-94461904D01*
X127954761Y-94414285D01*
X128002380Y-94319047D01*
X128002380Y-94033333D01*
X127954761Y-93938095D01*
X127907142Y-93890476D01*
%TO.C,R10*%
X135642857Y-87502380D02*
X135976190Y-87026190D01*
X136214285Y-87502380D02*
X136214285Y-86502380D01*
X135833333Y-86502380D01*
X135738095Y-86550000D01*
X135690476Y-86597619D01*
X135642857Y-86692857D01*
X135642857Y-86835714D01*
X135690476Y-86930952D01*
X135738095Y-86978571D01*
X135833333Y-87026190D01*
X136214285Y-87026190D01*
X134690476Y-87502380D02*
X135261904Y-87502380D01*
X134976190Y-87502380D02*
X134976190Y-86502380D01*
X135071428Y-86645238D01*
X135166666Y-86740476D01*
X135261904Y-86788095D01*
X134071428Y-86502380D02*
X133976190Y-86502380D01*
X133880952Y-86550000D01*
X133833333Y-86597619D01*
X133785714Y-86692857D01*
X133738095Y-86883333D01*
X133738095Y-87121428D01*
X133785714Y-87311904D01*
X133833333Y-87407142D01*
X133880952Y-87454761D01*
X133976190Y-87502380D01*
X134071428Y-87502380D01*
X134166666Y-87454761D01*
X134214285Y-87407142D01*
X134261904Y-87311904D01*
X134309523Y-87121428D01*
X134309523Y-86883333D01*
X134261904Y-86692857D01*
X134214285Y-86597619D01*
X134166666Y-86550000D01*
X134071428Y-86502380D01*
%TO.C,Q4*%
X132347619Y-93604761D02*
X132300000Y-93509523D01*
X132204761Y-93414285D01*
X132061904Y-93271428D01*
X132014285Y-93176190D01*
X132014285Y-93080952D01*
X132252380Y-93128571D02*
X132204761Y-93033333D01*
X132109523Y-92938095D01*
X131919047Y-92890476D01*
X131585714Y-92890476D01*
X131395238Y-92938095D01*
X131300000Y-93033333D01*
X131252380Y-93128571D01*
X131252380Y-93319047D01*
X131300000Y-93414285D01*
X131395238Y-93509523D01*
X131585714Y-93557142D01*
X131919047Y-93557142D01*
X132109523Y-93509523D01*
X132204761Y-93414285D01*
X132252380Y-93319047D01*
X132252380Y-93128571D01*
X131585714Y-94414285D02*
X132252380Y-94414285D01*
X131204761Y-94176190D02*
X131919047Y-93938095D01*
X131919047Y-94557142D01*
%TO.C,Q2*%
X114347619Y-93604761D02*
X114300000Y-93509523D01*
X114204761Y-93414285D01*
X114061904Y-93271428D01*
X114014285Y-93176190D01*
X114014285Y-93080952D01*
X114252380Y-93128571D02*
X114204761Y-93033333D01*
X114109523Y-92938095D01*
X113919047Y-92890476D01*
X113585714Y-92890476D01*
X113395238Y-92938095D01*
X113300000Y-93033333D01*
X113252380Y-93128571D01*
X113252380Y-93319047D01*
X113300000Y-93414285D01*
X113395238Y-93509523D01*
X113585714Y-93557142D01*
X113919047Y-93557142D01*
X114109523Y-93509523D01*
X114204761Y-93414285D01*
X114252380Y-93319047D01*
X114252380Y-93128571D01*
X113347619Y-93938095D02*
X113300000Y-93985714D01*
X113252380Y-94080952D01*
X113252380Y-94319047D01*
X113300000Y-94414285D01*
X113347619Y-94461904D01*
X113442857Y-94509523D01*
X113538095Y-94509523D01*
X113680952Y-94461904D01*
X114252380Y-93890476D01*
X114252380Y-94509523D01*
%TO.C,U4*%
X114042380Y-108278095D02*
X114851904Y-108278095D01*
X114947142Y-108325714D01*
X114994761Y-108373333D01*
X115042380Y-108468571D01*
X115042380Y-108659047D01*
X114994761Y-108754285D01*
X114947142Y-108801904D01*
X114851904Y-108849523D01*
X114042380Y-108849523D01*
X114375714Y-109754285D02*
X115042380Y-109754285D01*
X113994761Y-109516190D02*
X114709047Y-109278095D01*
X114709047Y-109897142D01*
%TO.C,R4*%
X116566666Y-87502380D02*
X116900000Y-87026190D01*
X117138095Y-87502380D02*
X117138095Y-86502380D01*
X116757142Y-86502380D01*
X116661904Y-86550000D01*
X116614285Y-86597619D01*
X116566666Y-86692857D01*
X116566666Y-86835714D01*
X116614285Y-86930952D01*
X116661904Y-86978571D01*
X116757142Y-87026190D01*
X117138095Y-87026190D01*
X115709523Y-86835714D02*
X115709523Y-87502380D01*
X115947619Y-86454761D02*
X116185714Y-87169047D01*
X115566666Y-87169047D01*
%TO.C,J1*%
X142112380Y-118816666D02*
X142826666Y-118816666D01*
X142969523Y-118769047D01*
X143064761Y-118673809D01*
X143112380Y-118530952D01*
X143112380Y-118435714D01*
X143112380Y-119816666D02*
X143112380Y-119245238D01*
X143112380Y-119530952D02*
X142112380Y-119530952D01*
X142255238Y-119435714D01*
X142350476Y-119340476D01*
X142398095Y-119245238D01*
%TO.C,R16*%
X147642857Y-87752380D02*
X147976190Y-87276190D01*
X148214285Y-87752380D02*
X148214285Y-86752380D01*
X147833333Y-86752380D01*
X147738095Y-86800000D01*
X147690476Y-86847619D01*
X147642857Y-86942857D01*
X147642857Y-87085714D01*
X147690476Y-87180952D01*
X147738095Y-87228571D01*
X147833333Y-87276190D01*
X148214285Y-87276190D01*
X146690476Y-87752380D02*
X147261904Y-87752380D01*
X146976190Y-87752380D02*
X146976190Y-86752380D01*
X147071428Y-86895238D01*
X147166666Y-86990476D01*
X147261904Y-87038095D01*
X145833333Y-86752380D02*
X146023809Y-86752380D01*
X146119047Y-86800000D01*
X146166666Y-86847619D01*
X146261904Y-86990476D01*
X146309523Y-87180952D01*
X146309523Y-87561904D01*
X146261904Y-87657142D01*
X146214285Y-87704761D01*
X146119047Y-87752380D01*
X145928571Y-87752380D01*
X145833333Y-87704761D01*
X145785714Y-87657142D01*
X145738095Y-87561904D01*
X145738095Y-87323809D01*
X145785714Y-87228571D01*
X145833333Y-87180952D01*
X145928571Y-87133333D01*
X146119047Y-87133333D01*
X146214285Y-87180952D01*
X146261904Y-87228571D01*
X146309523Y-87323809D01*
%TO.C,R9*%
X134816666Y-85702380D02*
X135150000Y-85226190D01*
X135388095Y-85702380D02*
X135388095Y-84702380D01*
X135007142Y-84702380D01*
X134911904Y-84750000D01*
X134864285Y-84797619D01*
X134816666Y-84892857D01*
X134816666Y-85035714D01*
X134864285Y-85130952D01*
X134911904Y-85178571D01*
X135007142Y-85226190D01*
X135388095Y-85226190D01*
X134340476Y-85702380D02*
X134150000Y-85702380D01*
X134054761Y-85654761D01*
X134007142Y-85607142D01*
X133911904Y-85464285D01*
X133864285Y-85273809D01*
X133864285Y-84892857D01*
X133911904Y-84797619D01*
X133959523Y-84750000D01*
X134054761Y-84702380D01*
X134245238Y-84702380D01*
X134340476Y-84750000D01*
X134388095Y-84797619D01*
X134435714Y-84892857D01*
X134435714Y-85130952D01*
X134388095Y-85226190D01*
X134340476Y-85273809D01*
X134245238Y-85321428D01*
X134054761Y-85321428D01*
X133959523Y-85273809D01*
X133911904Y-85226190D01*
X133864285Y-85130952D01*
%TO.C,Q5*%
X146147619Y-93904761D02*
X146100000Y-93809523D01*
X146004761Y-93714285D01*
X145861904Y-93571428D01*
X145814285Y-93476190D01*
X145814285Y-93380952D01*
X146052380Y-93428571D02*
X146004761Y-93333333D01*
X145909523Y-93238095D01*
X145719047Y-93190476D01*
X145385714Y-93190476D01*
X145195238Y-93238095D01*
X145100000Y-93333333D01*
X145052380Y-93428571D01*
X145052380Y-93619047D01*
X145100000Y-93714285D01*
X145195238Y-93809523D01*
X145385714Y-93857142D01*
X145719047Y-93857142D01*
X145909523Y-93809523D01*
X146004761Y-93714285D01*
X146052380Y-93619047D01*
X146052380Y-93428571D01*
X145052380Y-94761904D02*
X145052380Y-94285714D01*
X145528571Y-94238095D01*
X145480952Y-94285714D01*
X145433333Y-94380952D01*
X145433333Y-94619047D01*
X145480952Y-94714285D01*
X145528571Y-94761904D01*
X145623809Y-94809523D01*
X145861904Y-94809523D01*
X145957142Y-94761904D01*
X146004761Y-94714285D01*
X146052380Y-94619047D01*
X146052380Y-94380952D01*
X146004761Y-94285714D01*
X145957142Y-94238095D01*
D15*
%TO.C,R15*%
X149982776Y-84727500D02*
X150492224Y-84727500D01*
X149982776Y-85772500D02*
X150492224Y-85772500D01*
%TO.C,Q6*%
X151850000Y-91450000D02*
X151850000Y-89600000D01*
X148800000Y-91450000D02*
X149800000Y-91450000D01*
X148790000Y-91430000D02*
X148790000Y-89000000D01*
X150800000Y-91450000D02*
X151850000Y-91450000D01*
%TO.C,Q1*%
X108240000Y-91280000D02*
X108240000Y-88850000D01*
X110250000Y-91300000D02*
X111300000Y-91300000D01*
X111300000Y-91300000D02*
X111300000Y-89450000D01*
X108250000Y-91300000D02*
X109250000Y-91300000D01*
%TO.C,R3*%
X114004724Y-85822500D02*
X113495276Y-85822500D01*
X114004724Y-84777500D02*
X113495276Y-84777500D01*
%TO.C,Q3*%
X129050000Y-91200000D02*
X129050000Y-89350000D01*
X128000000Y-91200000D02*
X129050000Y-91200000D01*
X126000000Y-91200000D02*
X127000000Y-91200000D01*
X125990000Y-91180000D02*
X125990000Y-88750000D01*
%TO.C,R10*%
X131545276Y-86527500D02*
X132054724Y-86527500D01*
X131545276Y-87572500D02*
X132054724Y-87572500D01*
%TO.C,Q4*%
X132250000Y-91250000D02*
X133300000Y-91250000D01*
X133300000Y-91250000D02*
X133300000Y-89400000D01*
X130250000Y-91250000D02*
X131250000Y-91250000D01*
X130240000Y-91230000D02*
X130240000Y-88800000D01*
%TO.C,Q2*%
X112300000Y-91350000D02*
X113300000Y-91350000D01*
X114300000Y-91350000D02*
X115350000Y-91350000D01*
X112290000Y-91330000D02*
X112290000Y-88900000D01*
X115350000Y-91350000D02*
X115350000Y-89500000D01*
%TO.C,U4*%
X107730000Y-111480000D02*
X107730000Y-127720000D01*
X131350000Y-127720000D02*
X131970000Y-127720000D01*
X131970000Y-127720000D02*
X131970000Y-125600000D01*
X107730000Y-127720000D02*
X115350000Y-127720000D01*
X131970000Y-113600000D02*
X131970000Y-111480000D01*
X131970000Y-111480000D02*
X131350000Y-111480000D01*
X115350000Y-111480000D02*
X107730000Y-111480000D01*
X115350000Y-111480000D02*
X115350000Y-110870000D01*
%TO.C,R4*%
X113495276Y-86527500D02*
X114004724Y-86527500D01*
X113495276Y-87572500D02*
X114004724Y-87572500D01*
%TO.C,J1*%
X133540000Y-121210000D02*
X133540000Y-117090000D01*
X141660000Y-117090000D02*
X133540000Y-117090000D01*
X140600000Y-121210000D02*
X141660000Y-121210000D01*
X139600000Y-121210000D02*
X133540000Y-121210000D01*
X139600000Y-119150000D02*
X141660000Y-119150000D01*
X141660000Y-121210000D02*
X141660000Y-120150000D01*
X139600000Y-121210000D02*
X139600000Y-119150000D01*
X141660000Y-119150000D02*
X141660000Y-117090000D01*
%TO.C,R16*%
X150045276Y-87622500D02*
X150554724Y-87622500D01*
X150045276Y-86577500D02*
X150554724Y-86577500D01*
%TO.C,R9*%
X132067224Y-85722500D02*
X131557776Y-85722500D01*
X132067224Y-84677500D02*
X131557776Y-84677500D01*
%TO.C,Q5*%
X144050000Y-91400000D02*
X145050000Y-91400000D01*
X146050000Y-91400000D02*
X147100000Y-91400000D01*
X147100000Y-91400000D02*
X147100000Y-89550000D01*
X144040000Y-91380000D02*
X144040000Y-88950000D01*
%TD*%
M02*
